<?xml version="1.0" encoding="UTF-8"?>
<svg version="1.1" xmlns="http://www.w3.org/2000/svg" width="500" height="500">
<path d="M0 0 C165 0 330 0 500 0 C500 165 500 330 500 500 C335 500 170 500 0 500 C0 335 0 170 0 0 Z " fill="#000000" transform="translate(0,0)"/>
<path d="M0 0 C1.13566406 0.02835937 2.27132812 0.05671875 3.44140625 0.0859375 C41.20416049 1.76784172 71.26202288 20.0775075 97.375 46.0625 C98.23715622 46.91873459 98.23715622 46.91873459 99.11672974 47.79226685 C100.7590494 49.42918018 102.392893 51.07402124 104.0234375 52.72265625 C104.777033 53.47512634 104.777033 53.47512634 105.54585266 54.24279785 C109 57.76795035 109 57.76795035 109 60 C109.66 60 110.32 60 111 60 C112.20166016 61.32250977 112.20166016 61.32250977 113.5390625 63.19140625 C114.03317627 63.88089355 114.52729004 64.57038086 115.03637695 65.28076172 C115.56062256 66.03373535 116.08486816 66.78670898 116.625 67.5625 C117.16406982 68.33609863 117.70313965 69.10969727 118.25854492 69.90673828 C139.49223841 100.87795454 147.29764234 137.5077792 140.54345703 174.50048828 C135.64537065 197.72052316 124.7095938 220.12356568 109 238 C108.34 238 107.68 238 107 238 C106.75507813 238.56976563 106.51015625 239.13953125 106.2578125 239.7265625 C102.41286901 246.67611875 94.73634505 252.8806523 88 257 C87.34 257 86.68 257 86 257 C86.33 257.66 86.66 258.32 87 259 C90.31544299 260.10514766 93.20410111 260.32107631 96.6875 260.5625 C97.86699219 260.64628906 99.04648437 260.73007812 100.26171875 260.81640625 C101.16535156 260.87699219 102.06898438 260.93757813 103 261 C103 261.66 103 262.32 103 263 C99.8815675 264.0394775 97.72524414 264.11494838 94.45703125 264.09765625 C93.38388672 264.09443359 92.31074219 264.09121094 91.20507812 264.08789062 C90.08552734 264.07951172 88.96597656 264.07113281 87.8125 264.0625 C86.68134766 264.05798828 85.55019531 264.05347656 84.38476562 264.04882812 C81.58979073 264.03703498 78.7949218 264.0205765 76 264 C76.33 263.01 76.66 262.02 77 261 C75.68 261.33 74.36 261.66 73 262 C73.33 261.01 73.66 260.02 74 259 C73.27018921 259.44484741 73.27018921 259.44484741 72.52563477 259.89868164 C61.34636558 266.66490911 50.23843911 272.40862656 38 277 C38 277.66 38 278.32 38 279 C32.25 280 32.25 280 30 280 C29.01 280.66 28.02 281.32 27 282 C24.66705225 282.04241723 22.33297433 282.04092937 20 282 C17.54892612 282.4765977 15.37797029 283.20734324 13 284 C11.51876453 284.0806622 10.03417796 284.10761193 8.55078125 284.09765625 C7.70322266 284.09443359 6.85566406 284.09121094 5.98242188 284.08789062 C5.10134766 284.07951172 4.22027344 284.07113281 3.3125 284.0625 C2.41982422 284.05798828 1.52714844 284.05347656 0.60742188 284.04882812 C-1.59508073 284.03705004 -3.79754885 284.01911481 -6 284 C-0.72 284.33 4.56 284.66 10 285 C10 285.33 10 285.66 10 286 C-32.41824813 287.61673867 -73.544521 275.33182739 -105.3125 246.375 C-107.21839312 244.59366715 -109.10889112 242.79710639 -111 241 C-111.63421875 240.43023437 -112.2684375 239.86046875 -112.921875 239.2734375 C-126.76507778 226.41903492 -137.14583212 207.7664816 -143 190 C-143.21640137 189.34918457 -143.43280273 188.69836914 -143.65576172 188.02783203 C-152.73079015 160.3493192 -153.70644136 127.7326896 -144 100 C-143.01 100 -142.02 100 -141 100 C-142.02041052 104.78808015 -143.12654842 109.48848291 -144.5 114.1875 C-149.75442292 133.47149885 -148.81951123 152.59576776 -145 172 C-144.80664062 173.0415625 -144.61328125 174.083125 -144.4140625 175.15625 C-140.56576303 192.9483878 -131.99907342 210.56371614 -121 225 C-121.4846875 224.19820312 -121.969375 223.39640625 -122.46875 222.5703125 C-136.6412317 198.53160316 -144.45912636 174.44944784 -144.375 146.375 C-144.37318726 145.25165756 -144.37318726 145.25165756 -144.37133789 144.10562134 C-144.22805487 111.32657182 -131.83988379 83.93907352 -112.49462891 58.0078125 C-108.35032165 52.63229666 -108.35032165 52.63229666 -104.9453125 46.796875 C-103.67294539 44.37832595 -101.95961797 42.99838927 -99.875 41.25 C-99.15054688 40.63640625 -98.42609375 40.0228125 -97.6796875 39.390625 C-96.84824219 38.70226562 -96.84824219 38.70226562 -96 38 C-95.01 38.495 -95.01 38.495 -94 39 C-96.97 41.97 -99.94 44.94 -103 48 C-100.48847754 46.00872148 -98.00169225 44.00144275 -95.5625 41.921875 C-85.75128159 33.60626916 -74.94666337 27.35437152 -63.58203125 21.4453125 C-60.93737841 20.1184701 -60.93737841 20.1184701 -59 18 C-56.67084568 17.09982939 -54.37866452 16.30698512 -52 15.5625 C-51.39671875 15.35818359 -50.7934375 15.15386719 -50.171875 14.94335938 C-35.64659314 10.35417091 -20.73722429 9.4740424 -5.625 9.625 C-4.34373734 9.63297607 -4.34373734 9.63297607 -3.03659058 9.64111328 C22.95737137 9.83055108 45.34943289 14.80422661 69 26 C41.77916294 7.91689976 7.96179191 -2.13511263 -24.78125 3.9296875 C-28.00245187 4.60643322 -31.18134707 5.39786072 -34.3671875 6.22265625 C-37.7641017 6.94952284 -38.86705784 6.9693915 -42 6 C-42 5.34 -42 4.68 -42 4 C-28.04700212 0.53355209 -14.36739394 -0.4067988 0 0 Z " fill="#010000" transform="translate(255,110)"/>
<path d="M0 0 C0 0.66 0 1.32 0 2 C0.56847656 1.96519531 1.13695312 1.93039063 1.72265625 1.89453125 C10.21736651 1.59672004 15.76816147 4.20187537 22.00390625 9.890625 C28.05189844 16.28184962 32.24023057 22.08242398 32.14697266 30.88818359 C31.88719267 36.38844233 31.18136425 41.82909096 30.45581055 47.28491211 C30.18947688 49.29756095 29.9368467 51.31159727 29.68554688 53.32617188 C28.73453927 60.73387442 27.44854408 67.94934266 25.59765625 75.18896484 C24.74179126 79.21446708 24.79156524 82.90078303 25 87 C23.68 85.68 22.36 84.36 21 83 C20.67 83.33 20.34 83.66 20 84 C20.65097656 84.53753906 21.30195313 85.07507813 21.97265625 85.62890625 C24.51326201 88.60028909 24.51047249 90.07968789 24.4375 93.9375 C24.43621094 94.95714844 24.43492187 95.97679687 24.43359375 97.02734375 C23.93427543 100.45059817 23.11238448 102.26822926 21 105 C19.35 105.99 17.7 106.98 16 108 C21.94 108 27.88 108 34 108 C33.01 107.01 32.02 106.02 31 105 C29.66951722 96.73097802 31.25668083 87.42986335 31.875 79.125 C31.95322998 78.04331543 32.03145996 76.96163086 32.11206055 75.84716797 C32.81607091 67.14977677 32.81607091 67.14977677 34.06640625 63.12890625 C35.05257829 59.82378573 35.17130138 57.2462714 35.0625 53.8125 C34.95234285 47.48213594 35.3647957 41.29532832 36 35 C38.83832256 36.41916128 39.19594817 38.18979464 40.51171875 41.0625 C41.01501709 42.15361084 41.51831543 43.24472168 42.03686523 44.36889648 C42.58157471 45.56716064 43.12628418 46.7654248 43.6875 48 C44.25999961 49.24770604 44.83300738 50.49517902 45.40649414 51.74243164 C46.95414306 55.11372248 48.49306055 58.48892391 50.02905273 61.86553955 C51.0126379 64.02778225 51.99740531 66.18948326 52.98242188 68.35107422 C55.89486215 74.74405371 58.80364198 81.13866339 61.70210266 87.53799438 C62.57152981 89.4556985 63.4435465 91.37220804 64.31591797 93.28857422 C65.45664159 95.79562373 66.58395006 98.30818671 67.70361328 100.82470703 C68.23583496 102.00790527 68.76805664 103.19110352 69.31640625 104.41015625 C69.7863501 105.46468994 70.25629395 106.51922363 70.74047852 107.60571289 C71.77021337 110.12817922 71.77021337 110.12817922 74 111 C73.92821533 110.1860376 73.85643066 109.3720752 73.7824707 108.53344727 C74.06401542 103.96016259 75.59791078 100.5978823 77.48046875 96.46484375 C77.8452684 95.64072998 78.21006805 94.81661621 78.58592224 93.9675293 C79.77597689 91.28604854 80.98151416 88.61184856 82.1875 85.9375 C83.00861074 84.09556156 83.82875494 82.25319197 84.64794922 80.41040039 C86.6991952 75.80298051 88.76309315 71.20136271 90.83135986 66.6015625 C92.59063237 62.68516665 94.34007023 58.76439641 96.08984375 54.84375 C99.04685453 48.22326689 102.01753865 41.60906376 105 35 C107.25339281 37.25339281 107.36978747 37.9898664 107.8515625 41.03515625 C107.98046875 41.84533203 108.109375 42.65550781 108.2421875 43.49023438 C108.36851562 44.33908203 108.49484375 45.18792969 108.625 46.0625 C108.82609375 47.29516602 108.82609375 47.29516602 109.03125 48.55273438 C109.88597397 54.09535766 110.12421564 59.3933575 110 65 C109.01 65 108.02 65 107 65 C107.63550781 65.40347656 108.27101563 65.80695313 108.92578125 66.22265625 C111.37502337 68.32134771 111.66825649 69.30661586 112.1875 72.4375 C112.33316406 73.31019531 112.47882813 74.18289062 112.62890625 75.08203125 C113.25973557 80.04234183 113.67426608 85.01112782 114 90 C113.38253906 89.7834375 112.76507813 89.566875 112.12890625 89.34375 C102.08998857 86.04328391 94.93511553 86.51545008 85 90 C86.0621875 89.95359375 87.124375 89.9071875 88.21875 89.859375 C102.55897611 89.41696377 102.55897611 89.41696377 109 94 C111.5625 96.4375 111.5625 96.4375 113 99 C112.56731594 103.85244256 110.34797581 108.265545 108.45703125 112.69921875 C107.91639542 113.98332138 107.91639542 113.98332138 107.36483765 115.29336548 C106.18511357 118.09328552 104.99901867 120.89045328 103.8125 123.6875 C102.16709834 127.57981396 100.52450818 131.47330915 98.8828125 135.3671875 C98.46994492 136.34542984 98.05707733 137.32367218 97.63169861 138.33155823 C94.99225034 144.59935069 92.40698187 150.88653336 89.8671875 157.1953125 C89.23592319 158.75691811 88.60465697 160.31852295 87.97338867 161.88012695 C87.0871358 164.07416468 86.20458989 166.26931368 85.33389282 168.46957397 C84.53815276 170.47980144 83.72933717 172.4843214 82.91796875 174.48828125 C82.47219482 175.60759033 82.0264209 176.72689941 81.56713867 177.88012695 C78.68260547 183.62268027 76.17655247 186.52937901 70 189 C76.93 189 83.86 189 91 189 C89.68 187.68 88.36 186.36 87 185 C86.9240001 178.43867488 90.03802494 172.50620635 92.5625 166.5625 C94.026875 163.076875 95.49125 159.59125 97 156 C108.55 156 120.1 156 132 156 C132 156.99 132 157.98 132 159 C132.33 158.01 132.66 157.02 133 156 C133.66 156 134.32 156 135 156 C135.26627197 156.74459473 135.53254395 157.48918945 135.80688477 158.25634766 C144.83740935 184.26909061 144.83740935 184.26909061 160 207 C161.67407259 208.99392063 163.3366661 210.99709274 165 213 C130.22668262 233.26728853 95.99353362 242.55667027 56 233 C54.4135272 232.63983479 52.82629077 232.28301552 51.23828125 231.9296875 C50.12259766 231.68001221 50.12259766 231.68001221 48.984375 231.42529297 C47.46219756 231.09905858 45.92978226 230.82029327 44.39453125 230.5625 C14.13186332 223.45348828 -13.28183928 198.36375656 -29.35742188 172.84521484 C-47.64598269 142.83100564 -54.17335877 106.39492326 -46 72 C-43.75732287 63.02351139 -41.08804847 54.32750614 -37 46 C-36.34 46 -35.68 46 -35 46 C-34.55011719 44.86304688 -34.10023437 43.72609375 -33.63671875 42.5546875 C-29.37677773 32.17263496 -13.31673183 0 0 0 Z " fill="#010000" transform="translate(161,155)"/>
<path d="M0 0 C1.27677612 0.00648056 1.27677612 0.00648056 2.5793457 0.01309204 C20.11176856 0.11733421 38.48322362 0.64579905 54.625 8.375 C54.955 9.365 55.285 10.355 55.625 11.375 C57.25914461 12.51893249 57.25914461 12.51893249 59.31640625 13.43359375 C60.08815186 13.81273926 60.85989746 14.19188477 61.6550293 14.58251953 C62.49074463 14.98841309 63.32645996 15.39430664 64.1875 15.8125 C84.81996205 26.31369302 110.45459574 45.29737896 118.9140625 67.8046875 C119.26597656 69.07699219 119.26597656 69.07699219 119.625 70.375 C116.71971013 67.75116009 114.77274943 64.69465676 112.625 61.4375 C107.90504949 54.45543526 102.46265272 48.43112775 96.625 42.375 C95.97015625 41.65699219 95.3153125 40.93898437 94.640625 40.19921875 C74.12660932 18.3263687 39.49633102 3.34929525 9.68920898 2.26855469 C-31.57696809 1.46856418 -67.1696383 14.30451751 -97.25854492 42.9230957 C-109.82584202 55.1943477 -117.12930509 68.01058151 -123.375 84.375 C-124.035 84.045 -124.695 83.715 -125.375 83.375 C-128.98479099 92.58055112 -132.42953704 101.64768522 -134.375 111.375 C-134.57996094 112.37917969 -134.78492188 113.38335937 -134.99609375 114.41796875 C-141.01917912 149.18570983 -132.54660845 185.48778636 -112.72509766 214.48632812 C-108.95760878 219.75672485 -104.73976144 224.5957805 -100.375 229.375 C-99.67117187 230.16132813 -98.96734375 230.94765625 -98.2421875 231.7578125 C-83.84862575 247.0270282 -59.51675249 264.49880339 -38.0625 266.03125 C-33.69423093 266.58998209 -29.47057508 267.78256148 -25.22216797 268.91601562 C5.90604254 277.11451842 39.22900003 268.35070477 66.85351562 253.42480469 C69.92469858 251.60478171 72.75801143 249.49951205 75.625 247.375 C75.15191406 246.95992187 74.67882812 246.54484375 74.19140625 246.1171875 C59.44729824 232.37901278 51.97022219 212.434937 46.625 193.375 C46.625 192.715 46.625 192.055 46.625 191.375 C45.965 191.375 45.305 191.375 44.625 191.375 C44.295 192.695 43.965 194.015 43.625 195.375 C43.295 194.715 42.965 194.055 42.625 193.375 C42.955 192.715 43.285 192.055 43.625 191.375 C32.075 191.375 20.525 191.375 8.625 191.375 C7.635 194.345 6.645 197.315 5.625 200.375 C2.84067472 207.44851208 2.84067472 207.44851208 1.5234375 210.59960938 C-0.17015023 214.90484354 -0.80218921 217.91922147 0.625 222.375 C3.08755685 223.82791273 3.08755685 223.82791273 5.625 224.375 C5.625 224.705 5.625 225.035 5.625 225.375 C-3.285 225.375 -12.195 225.375 -21.375 225.375 C-18.375 223.375 -18.375 223.375 -15.4375 222.1875 C-9.24558129 218.52289505 -6.95948095 210.36260952 -4.28515625 203.9375 C-3.71301643 202.57854614 -3.71301643 202.57854614 -3.12931824 201.19213867 C-1.89405915 198.25502028 -0.66534071 195.31522655 0.5625 192.375 C1.83742582 189.33019593 3.11308161 186.28569834 4.38876343 183.24121094 C5.24145768 181.20566456 6.09352904 179.16985715 6.94497681 177.13378906 C9.52608301 170.96840026 12.14576298 164.82137522 14.80078125 158.6875 C15.70931828 156.57496125 16.61668829 154.46192639 17.52346802 152.34863281 C18.08751092 151.04132599 18.65604208 149.73594579 19.22921753 148.43261719 C20.01356415 146.64771451 20.7807068 144.85528094 21.546875 143.0625 C21.97581055 142.07636719 22.40474609 141.09023438 22.84667969 140.07421875 C23.72326015 137.03423331 23.5917768 135.36321919 22.625 132.375 C21.14674744 130.76307595 21.14674744 130.76307595 19.25 129.625 C18.64414062 129.21765625 18.03828125 128.8103125 17.4140625 128.390625 C14.43629218 126.7001877 11.96704655 126.25212747 8.61328125 126.27734375 C7.85595703 126.28056641 7.09863281 126.28378906 6.31835938 126.28710938 C5.53267578 126.29548828 4.74699219 126.30386719 3.9375 126.3125 C3.14021484 126.31701172 2.34292969 126.32152344 1.52148438 126.32617188 C-0.44404257 126.3379415 -2.40953085 126.35587652 -4.375 126.375 C-3.375 124.375 -3.375 124.375 -1.40625 123.5234375 C8.98517184 120.34828083 15.74397685 120.75422926 25.625 125.375 C25.295 124.715 24.965 124.055 24.625 123.375 C24.18588095 119.81038655 23.8077621 116.24654278 23.46289062 112.671875 C22.8598187 107.00397948 21.96497971 103.3204361 17.625 99.375 C18.945 99.705 20.265 100.035 21.625 100.375 C21.625 99.715 21.625 99.055 21.625 98.375 C20.305 98.045 18.985 97.715 17.625 97.375 C18.945 97.375 20.265 97.375 21.625 97.375 C19.645 85 19.645 85 17.625 72.375 C15.4813889 75.23314813 14.14914144 77.10673055 12.79077148 80.2277832 C12.2984906 81.34837631 12.2984906 81.34837631 11.79626465 82.49160767 C11.44970825 83.29488495 11.10315186 84.09816223 10.74609375 84.92578125 C10.37738159 85.76885834 10.00866943 86.61193542 9.62878418 87.4805603 C8.43483233 90.2139777 7.24840319 92.95058218 6.0625 95.6875 C5.24785516 97.5591652 4.43283169 99.43066564 3.61743164 101.30200195 C2.40526974 104.08496405 1.19383246 106.86822856 -0.01515198 109.65257263 C-2.23944087 114.77520281 -4.48131761 119.889063 -6.75 124.9921875 C-7.44887329 126.57132935 -7.44887329 126.57132935 -8.16186523 128.18237305 C-8.98468899 130.04014373 -9.81199782 131.89593751 -10.64477539 133.74926758 C-12.50113328 137.96864502 -13.88802423 141.73749231 -14.375 146.375 C-17.375 145.375 -17.375 145.375 -19.28515625 141.89453125 C-20.01347177 140.33053582 -20.73005449 138.76104569 -21.4375 137.1875 C-21.82558334 136.34573715 -22.21366669 135.5039743 -22.61351013 134.63670349 C-23.87763705 131.88739093 -25.12649018 129.13143518 -26.375 126.375 C-27.2363303 124.49323654 -28.09839232 122.61180784 -28.96118164 120.73071289 C-34.10225414 109.49617989 -39.17449021 98.22996624 -44.07617188 86.88867188 C-46.35243341 81.62552959 -48.76034548 76.47923445 -51.375 71.375 C-52.20810462 78.6646654 -52.42395064 85.77781166 -52.21484375 93.11328125 C-52.375 96.375 -52.375 96.375 -53.30859375 99.0390625 C-54.9208386 104.08249512 -55.12192145 109.17512885 -55.5 114.4375 C-55.6252002 116.11017944 -55.6252002 116.11017944 -55.75292969 117.81665039 C-56.78087081 129.099961 -56.78087081 129.099961 -56.375 140.375 C-54.26959074 142.69122777 -54.26959074 142.69122777 -50.375 144.375 C-58.955 144.375 -67.535 144.375 -76.375 144.375 C-75.055 143.715 -73.735 143.055 -72.375 142.375 C-67.75677648 139.80865893 -67.75677648 139.80865893 -65.375 135.375 C-64.55910362 128.10630969 -64.55910362 128.10630969 -66.4921875 121.25390625 C-67.97308298 119.43588395 -67.97308298 119.43588395 -70.375 117.375 C-69.055 117.045 -67.735 116.715 -66.375 116.375 C-65.715 117.695 -65.055 119.015 -64.375 120.375 C-64.4575 119.22 -64.54 118.065 -64.625 116.875 C-64.63181146 112.45436087 -63.74561337 108.68861078 -62.5625 104.4375 C-60.53250851 97.0360346 -59.49674401 89.61875226 -58.625 82 C-58.49762451 80.90695557 -58.37024902 79.81391113 -58.23901367 78.68774414 C-56.45270899 64.0411562 -56.45270899 64.0411562 -62.2421875 50.99609375 C-68.58219935 43.20461399 -74.22954947 38.95182974 -84.25 37.75 C-85.62438955 37.61845777 -86.99922639 37.49117644 -88.375 37.375 C-88.375 36.715 -88.375 36.055 -88.375 35.375 C-81.03031257 32.92677086 -73.33846937 34.28359431 -66.375 37.375 C-54.4400573 44.2396498 -48.54246896 54.23704701 -42.875 66.4375 C-42.37653564 67.49171143 -41.87807129 68.54592285 -41.36450195 69.63208008 C-36.36605485 80.26018795 -31.52227004 90.96228056 -26.71484375 101.67797852 C-22.81154501 110.35697348 -18.69944912 118.89703187 -14.375 127.375 C-11.70676256 121.4590406 -9.04025497 115.54230366 -6.375 109.625 C-5.97394043 108.73462036 -5.57288086 107.84424072 -5.15966797 106.92687988 C1.49910307 92.1395553 8.10804991 77.33068244 14.671875 62.50097656 C14.99196533 61.77865845 15.31205566 61.05634033 15.6418457 60.31213379 C16.23496899 58.97355628 16.82731486 57.6346339 17.41870117 56.29528809 C18.75306234 53.2846894 20.11800899 50.30344025 21.625 47.375 C22.285 47.375 22.945 47.375 23.625 47.375 C25.39054842 57.12935994 27.05308838 66.89737143 28.6328125 76.68359375 C28.8053656 77.75131012 28.9779187 78.81902649 29.15570068 79.9190979 C29.87146676 84.35334693 30.58583294 88.78781291 31.29638672 93.22290039 C31.82229928 96.5019392 32.35224389 99.78030558 32.8828125 103.05859375 C33.04323029 104.06675644 33.20364807 105.07491913 33.368927 106.1136322 C33.59453812 107.50262474 33.59453812 107.50262474 33.82470703 108.91967773 C33.95555695 109.73444077 34.08640686 110.5492038 34.22122192 111.38865662 C34.54815736 113.43804642 34.54815736 113.43804642 35.625 115.375 C35.563125 116.57125 35.50125 117.7675 35.4375 119 C35.32414816 128.99115537 38.62546241 139.80436413 43.625 148.375 C44.285 147.715 44.945 147.055 45.625 146.375 C45.78355469 147.05046875 45.94210937 147.7259375 46.10546875 148.421875 C47.613236 154.25367711 47.613236 154.25367711 51.1875 159 C53.44889671 160.53877373 53.44889671 160.53877373 55.625 160.375 C56.285 161.365 56.945 162.355 57.625 163.375 C62.46581049 165.50023387 67.41452358 165.93500421 72.625 166.375 C72.625 167.035 72.625 167.695 72.625 168.375 C65.91981414 168.57318283 59.97323202 168.68344801 53.625 166.375 C53.295 167.035 52.965 167.695 52.625 168.375 C52.625 167.715 52.625 167.055 52.625 166.375 C51.305 166.045 49.985 165.715 48.625 165.375 C48.955 167.355 49.285 169.335 49.625 171.375 C51.275 170.385 52.925 169.395 54.625 168.375 C54.625 169.365 54.625 170.355 54.625 171.375 C54.109375 171.82875 53.59375 172.2825 53.0625 172.75 C52.588125 173.28625 52.11375 173.8225 51.625 174.375 C54.41056272 196.67442439 67.27823814 224.38273596 81.625 241.375 C86.21228714 240.49494937 88.87645222 237.80993808 92.1875 234.6875 C93.11296631 233.81834961 93.11296631 233.81834961 94.05712891 232.93164062 C114.46512559 213.31889749 127.92201904 186.98577369 133.625 159.375 C133.87769653 158.19671631 133.87769653 158.19671631 134.13549805 156.99462891 C135.51720336 150.11502889 135.97303528 143.50877954 135.9375 136.5 C135.93621094 135.42951416 135.93492187 134.35902832 135.93359375 133.25610352 C135.81009384 122.80106452 134.44111686 112.65551866 132.625 102.375 C133.285 102.045 133.945 101.715 134.625 101.375 C137.45906534 112.12163804 138.11511085 122.08157092 138 133.125 C137.99534729 133.91936462 137.99069458 134.71372925 137.98590088 135.53216553 C137.90706445 147.00272207 137.69605877 158.24965502 134.625 169.375 C134.32698486 170.46554687 134.32698486 170.46554687 134.02294922 171.578125 C126.00401443 199.83360758 108.96752372 226.35695705 85.625 244.375 C88.4934413 246.47732344 88.4934413 246.47732344 91.625 247.375 C91.955 248.035 92.285 248.695 92.625 249.375 C95.94044299 250.48014766 98.82910111 250.69607631 102.3125 250.9375 C103.49199219 251.02128906 104.67148437 251.10507812 105.88671875 251.19140625 C106.79035156 251.25199219 107.69398438 251.31257812 108.625 251.375 C108.625 252.035 108.625 252.695 108.625 253.375 C105.5065675 254.4144775 103.35024414 254.48994838 100.08203125 254.47265625 C99.00888672 254.46943359 97.93574219 254.46621094 96.83007812 254.46289062 C95.71052734 254.45451172 94.59097656 254.44613281 93.4375 254.4375 C92.30634766 254.43298828 91.17519531 254.42847656 90.00976562 254.42382812 C87.21479073 254.41203498 84.4199218 254.3955765 81.625 254.375 C81.955 253.385 82.285 252.395 82.625 251.375 C81.305 251.705 79.985 252.035 78.625 252.375 C78.955 251.385 79.285 250.395 79.625 249.375 C78.89518921 249.81984741 78.89518921 249.81984741 78.15063477 250.27368164 C66.97136558 257.03990911 55.86343911 262.78362656 43.625 267.375 C43.625 268.035 43.625 268.695 43.625 269.375 C37.875 270.375 37.875 270.375 35.625 270.375 C34.635 271.035 33.645 271.695 32.625 272.375 C30.29205225 272.41741723 27.95797433 272.41592937 25.625 272.375 C23.17392612 272.8515977 21.00297029 273.58234324 18.625 274.375 C17.14376453 274.4556622 15.65917796 274.48261193 14.17578125 274.47265625 C13.32822266 274.46943359 12.48066406 274.46621094 11.60742188 274.46289062 C10.72634766 274.45451172 9.84527344 274.44613281 8.9375 274.4375 C8.04482422 274.43298828 7.15214844 274.42847656 6.23242188 274.42382812 C4.02991927 274.41205004 1.82745115 274.39411481 -0.375 274.375 C4.905 274.705 10.185 275.035 15.625 275.375 C15.625 275.705 15.625 276.035 15.625 276.375 C-26.79324813 277.99173867 -67.919521 265.70682739 -99.6875 236.75 C-101.59339312 234.96866715 -103.48389112 233.17210639 -105.375 231.375 C-106.00921875 230.80523437 -106.6434375 230.23546875 -107.296875 229.6484375 C-121.14007778 216.79403492 -131.52083212 198.1414816 -137.375 180.375 C-137.59140137 179.72418457 -137.80780273 179.07336914 -138.03076172 178.40283203 C-147.10579015 150.7243192 -148.08144136 118.1076896 -138.375 90.375 C-137.385 90.375 -136.395 90.375 -135.375 90.375 C-136.39541052 95.16308015 -137.50154842 99.86348291 -138.875 104.5625 C-144.12942292 123.84649885 -143.19451123 142.97076776 -139.375 162.375 C-139.18164062 163.4165625 -138.98828125 164.458125 -138.7890625 165.53125 C-134.94076303 183.3233878 -126.37407342 200.93871614 -115.375 215.375 C-115.8596875 214.57320312 -116.344375 213.77140625 -116.84375 212.9453125 C-131.0162317 188.90660316 -138.83412636 164.82444784 -138.75 136.75 C-138.74818726 135.62665756 -138.74818726 135.62665756 -138.74633789 134.48062134 C-138.60305487 101.70157182 -126.21488379 74.31407352 -106.86962891 48.3828125 C-102.72532165 43.00729666 -102.72532165 43.00729666 -99.3203125 37.171875 C-98.04794539 34.75332595 -96.33461797 33.37338927 -94.25 31.625 C-93.52554688 31.01140625 -92.80109375 30.3978125 -92.0546875 29.765625 C-91.50039062 29.30671875 -90.94609375 28.8478125 -90.375 28.375 C-89.715 28.705 -89.055 29.035 -88.375 29.375 C-91.345 32.345 -94.315 35.315 -97.375 38.375 C-94.86347754 36.38372148 -92.37669225 34.37644275 -89.9375 32.296875 C-80.12628159 23.98126916 -69.32166337 17.72937152 -57.95703125 11.8203125 C-55.31237841 10.4934701 -55.31237841 10.4934701 -53.375 8.375 C-51.04584568 7.47482939 -48.75366452 6.68198512 -46.375 5.9375 C-45.77171875 5.73318359 -45.1684375 5.52886719 -44.546875 5.31835938 C-30.01939218 0.72847553 -15.11381468 -0.14612293 0 0 Z " fill="#CD9E4F" transform="translate(249.375,119.625)"/>
<path d="M0 0 C1.13566406 0.02835937 2.27132812 0.05671875 3.44140625 0.0859375 C41.20416049 1.76784172 71.26202288 20.0775075 97.375 46.0625 C98.23715622 46.91873459 98.23715622 46.91873459 99.11672974 47.79226685 C100.7590494 49.42918018 102.392893 51.07402124 104.0234375 52.72265625 C104.777033 53.47512634 104.777033 53.47512634 105.54585266 54.24279785 C109 57.76795035 109 57.76795035 109 60 C109.66 60 110.32 60 111 60 C112.20166016 61.32250977 112.20166016 61.32250977 113.5390625 63.19140625 C114.03317627 63.88089355 114.52729004 64.57038086 115.03637695 65.28076172 C115.56062256 66.03373535 116.08486816 66.78670898 116.625 67.5625 C117.16406982 68.33609863 117.70313965 69.10969727 118.25854492 69.90673828 C139.49223841 100.87795454 147.29764234 137.5077792 140.54345703 174.50048828 C135.64537065 197.72052316 124.7095938 220.12356568 109 238 C108.34 238 107.68 238 107 238 C106.75507813 238.56976563 106.51015625 239.13953125 106.2578125 239.7265625 C102.23702107 246.99395571 93.0929163 255.51456608 85 257.875 C84.01 257.936875 84.01 257.936875 83 258 C82.67 257.34 82.34 256.68 82 256 C80.515 255.01 80.515 255.01 79 254 C79.40726318 253.6282666 79.81452637 253.2565332 80.23413086 252.87353516 C107.41940979 227.98533368 128.82667523 197.05910223 131.12466431 158.93161011 C131.30074165 154.40547733 131.32841731 149.88166815 131.31567383 145.35253906 C131.31250376 143.00278672 131.33610838 140.65428641 131.36132812 138.3046875 C131.3980001 129.08803978 130.59869479 120.9041922 128 112 C127.34 112 126.68 112 126 112 C125.63648438 110.83984375 125.27296875 109.6796875 124.8984375 108.484375 C122.23489969 100.14953128 119.42617682 92.26726686 115.2890625 84.5234375 C114.17452642 82.34164868 113.40115092 80.33125968 112.6875 78 C109.15396161 68.03996783 100.12989768 59.55574482 93 52 C91.89785156 50.78376953 91.89785156 50.78376953 90.7734375 49.54296875 C80.18590552 38.30035536 67.10791589 30.71015495 53.44921875 23.77734375 C50 22 50 22 47 20 C47.66 20 48.32 20 49 20 C49.33 19.34 49.66 18.68 50 18 C51.12019531 18.49371094 52.24039063 18.98742187 53.39453125 19.49609375 C54.86715695 20.14329868 56.33981489 20.79043027 57.8125 21.4375 C58.91948242 21.92573242 58.91948242 21.92573242 60.04882812 22.42382812 C60.76103516 22.73642578 61.47324219 23.04902344 62.20703125 23.37109375 C63.18893433 23.8031311 63.18893433 23.8031311 64.19067383 24.24389648 C65.76534587 24.90193984 67.38094108 25.46031369 69 26 C41.77916294 7.91689976 7.96179191 -2.13511263 -24.78125 3.9296875 C-28.00245187 4.60643322 -31.18134707 5.39786072 -34.3671875 6.22265625 C-37.7641017 6.94952284 -38.86705784 6.9693915 -42 6 C-42 5.34 -42 4.68 -42 4 C-28.04700212 0.53355209 -14.36739394 -0.4067988 0 0 Z " fill="#382B15" transform="translate(255,110)"/>
<path d="M0 0 C0 0.66 0 1.32 0 2 C-0.54938232 2.2266333 -1.09876465 2.4532666 -1.66479492 2.68676758 C-4.17407035 3.72460495 -6.68078567 4.76849279 -9.1875 5.8125 C-10.05181641 6.16892578 -10.91613281 6.52535156 -11.80664062 6.89257812 C-16.08848954 8.68078323 -20.04048373 10.56278319 -24 13 C-24.66 13 -25.32 13 -26 13 C-26 13.66 -26 14.32 -26 15 C-23.36 14.34 -20.72 13.68 -18 13 C-17.505 13.99 -17.505 13.99 -17 15 C-17.55236328 15.27038086 -18.10472656 15.54076172 -18.67382812 15.81933594 C-34.37454501 23.57863803 -47.80604276 32.53891286 -61 44 C-59.49053489 40.81913482 -57.92058175 38.70130094 -55.375 36.25 C-54.74335938 35.63640625 -54.11171875 35.0228125 -53.4609375 34.390625 C-52.73777344 33.70226562 -52.73777344 33.70226562 -52 33 C-53.2989839 33.90626784 -54.58893167 34.82549537 -55.875 35.75 C-56.59429687 36.26046875 -57.31359375 36.7709375 -58.0546875 37.296875 C-60.15010186 39.13141448 -60.78568282 40.52952188 -62 43 C-62.87994213 44.29780114 -63.78959927 45.5757825 -64.72265625 46.8359375 C-65.25681152 47.56321045 -65.7909668 48.2904834 -66.34130859 49.03979492 C-66.90930176 49.8104126 -67.47729492 50.58103027 -68.0625 51.375 C-79.04947429 66.48095181 -88.16867586 81.25405883 -94.25 99 C-94.48420654 99.67450195 -94.71841309 100.34900391 -94.9597168 101.04394531 C-99.17977729 113.94168488 -100.52502304 126.42180574 -100.375 139.875 C-100.37034729 140.62112549 -100.36569458 141.36725098 -100.36090088 142.13598633 C-100.16581594 168.83046652 -93.32613461 196.29366194 -77 218 C-77.33 218.66 -77.66 219.32 -78 220 C-99.78928965 192.12593532 -109.54884575 156.01649661 -105.3125 120.875 C-104.32884271 114.71990917 -102.60286583 108.83648255 -100.58911133 102.94677734 C-99.42790956 99.38154174 -98.92988593 97.39946569 -99.59375 93.6171875 C-100.18124201 88.38624905 -98.32426871 84.77598575 -96.1875 80.0625 C-95.77806152 79.13953125 -95.36862305 78.2165625 -94.94677734 77.265625 C-88.59046804 63.31310393 -80.3799919 51.24470183 -70 40 C-69.51192871 39.4627832 -69.02385742 38.92556641 -68.52099609 38.37207031 C-52.98153398 21.42998448 -33.13468091 9.12166687 -11.5625 1.3125 C-10.85867187 1.0561377 -10.15484375 0.79977539 -9.4296875 0.53564453 C-5.9870997 -0.62851151 -3.44667954 -1.45448114 0 0 Z " fill="#2C2211" transform="translate(212,116)"/>
<path d="M0 0 C1.27677612 0.00648056 1.27677612 0.00648056 2.5793457 0.01309204 C20.11176856 0.11733421 38.48322362 0.64579905 54.625 8.375 C54.955 9.365 55.285 10.355 55.625 11.375 C57.25914461 12.51893249 57.25914461 12.51893249 59.31640625 13.43359375 C60.08815186 13.81273926 60.85989746 14.19188477 61.6550293 14.58251953 C62.49074463 14.98841309 63.32645996 15.39430664 64.1875 15.8125 C84.81996205 26.31369302 110.45459574 45.29737896 118.9140625 67.8046875 C119.26597656 69.07699219 119.26597656 69.07699219 119.625 70.375 C116.71971013 67.75116009 114.77274943 64.69465676 112.625 61.4375 C107.90504949 54.45543526 102.46265272 48.43112775 96.625 42.375 C95.97015625 41.65699219 95.3153125 40.93898437 94.640625 40.19921875 C74.12660932 18.3263687 39.49633102 3.34929525 9.68920898 2.26855469 C-31.57696809 1.46856418 -67.1696383 14.30451751 -97.25854492 42.9230957 C-109.82584202 55.1943477 -117.12930509 68.01058151 -123.375 84.375 C-124.035 84.045 -124.695 83.715 -125.375 83.375 C-128.98479099 92.58055112 -132.42953704 101.64768522 -134.375 111.375 C-134.57996094 112.37917969 -134.78492188 113.38335937 -134.99609375 114.41796875 C-140.76355353 147.71013314 -133.51307647 183.34350052 -114.390625 211.19140625 C-112.375 214.375 -112.375 214.375 -110.984375 217.859375 C-109.05690117 222.06987609 -106.58731405 224.79199186 -103.375 228.0625 C-102.31088665 229.16902366 -101.24834125 230.27705769 -100.1875 231.38671875 C-99.45080078 232.15508057 -99.45080078 232.15508057 -98.69921875 232.93896484 C-97.11638083 234.65545685 -95.71445232 236.46348992 -94.375 238.375 C-95.365 238.705 -96.355 239.035 -97.375 239.375 C-115.12487339 222.48746864 -129.61593778 203.92253726 -137.375 180.375 C-137.59140137 179.72418457 -137.80780273 179.07336914 -138.03076172 178.40283203 C-147.10579015 150.7243192 -148.08144136 118.1076896 -138.375 90.375 C-137.385 90.375 -136.395 90.375 -135.375 90.375 C-136.39541052 95.16308015 -137.50154842 99.86348291 -138.875 104.5625 C-144.12942292 123.84649885 -143.19451123 142.97076776 -139.375 162.375 C-139.18164062 163.4165625 -138.98828125 164.458125 -138.7890625 165.53125 C-134.94076303 183.3233878 -126.37407342 200.93871614 -115.375 215.375 C-115.8596875 214.57320312 -116.344375 213.77140625 -116.84375 212.9453125 C-131.0162317 188.90660316 -138.83412636 164.82444784 -138.75 136.75 C-138.74818726 135.62665756 -138.74818726 135.62665756 -138.74633789 134.48062134 C-138.60305487 101.70157182 -126.21488379 74.31407352 -106.86962891 48.3828125 C-102.72532165 43.00729666 -102.72532165 43.00729666 -99.3203125 37.171875 C-98.04794539 34.75332595 -96.33461797 33.37338927 -94.25 31.625 C-93.52554688 31.01140625 -92.80109375 30.3978125 -92.0546875 29.765625 C-91.50039062 29.30671875 -90.94609375 28.8478125 -90.375 28.375 C-89.715 28.705 -89.055 29.035 -88.375 29.375 C-91.345 32.345 -94.315 35.315 -97.375 38.375 C-94.86347754 36.38372148 -92.37669225 34.37644275 -89.9375 32.296875 C-80.12628159 23.98126916 -69.32166337 17.72937152 -57.95703125 11.8203125 C-55.31237841 10.4934701 -55.31237841 10.4934701 -53.375 8.375 C-51.04584568 7.47482939 -48.75366452 6.68198512 -46.375 5.9375 C-45.77171875 5.73318359 -45.1684375 5.52886719 -44.546875 5.31835938 C-30.01939218 0.72847553 -15.11381468 -0.14612293 0 0 Z " fill="#B78D47" transform="translate(249.375,119.625)"/>
<path d="M0 0 C0.33 0 0.66 0 1 0 C0.52648355 7.33950502 -0.84714122 14.26443898 -2.54003906 21.40185547 C-7.21724064 41.37394333 -6.6388839 64.05882377 -2 84 C-1.59974609 85.87365234 -1.59974609 85.87365234 -1.19140625 87.78515625 C3.84094498 109.05522743 14.89112417 129.48801501 29.75 145.44140625 C31 147 31 147 31 149 C31.66 149 32.32 149 33 149 C33 149.66 33 150.32 33 151 C33.66 151 34.32 151 35 151 C35 151.66 35 152.32 35 153 C35.66 153 36.32 153 37 153 C37 153.66 37 154.32 37 155 C37.55042969 155.23589844 38.10085937 155.47179687 38.66796875 155.71484375 C41.58546546 157.32264344 43.81599783 159.35604787 46.3125 161.5625 C57.58418204 171.18265995 70.36030632 177.42582821 84 183 C84 183.66 84 184.32 84 185 C57.29020588 180.91437184 30.00539059 157.75274952 14.4375 136.9375 C-6.52785973 107.89018794 -16.28678197 72.56731874 -11.17895508 36.82788086 C-9.07197582 24.16214214 -5.66849882 11.54694205 0 0 Z " fill="#241C0E" transform="translate(124,201)"/>
<path d="M0 0 C2.77410821 1.3870541 2.88393765 2.83123813 3.953125 5.71484375 C4.32252197 6.70331299 4.69191895 7.69178223 5.07250977 8.71020508 C5.46108154 9.7752124 5.84965332 10.84021973 6.25 11.9375 C6.64823975 13.01604248 7.04647949 14.09458496 7.45678711 15.20581055 C9.905104 21.88057088 12.28952195 28.57595075 14.5625 35.3125 C14.81354492 36.05169678 15.06458984 36.79089355 15.32324219 37.55249023 C16.29391491 40.49131678 17 42.88317544 17 46 C5.78 46 -5.44 46 -17 46 C-15.06686266 39.55620888 -13.1039625 33.37289717 -10.64453125 27.1484375 C-10.33803146 26.36352936 -10.03153168 25.57862122 -9.71574402 24.76992798 C-8.75166568 22.30349641 -7.78219476 19.83922806 -6.8125 17.375 C-6.15133203 15.68633909 -5.49052172 13.9975381 -4.83007812 12.30859375 C-3.22417272 8.20410186 -1.61343303 4.10153837 0 0 Z " fill="#070502" transform="translate(277,261)"/>
<path d="M0 0 C4.25634865 1.52012452 5.71874316 4.21977328 8 8 C9.75561383 12.26907805 11.16175411 16.64581652 12.57421875 21.03808594 C13.24362283 23.10530633 13.94110104 25.16155842 14.640625 27.21875 C17.86829395 36.98287475 20.22305856 46.42319162 16 56.25 C15.35573236 57.51169079 14.69749149 58.76693469 14 60 C9.61944448 57.51768521 9.29631183 54.66672259 8 50 C7.01 49.67 6.02 49.34 5 49 C1.76775854 43.89097318 0.22233279 38.62065817 -1.25 32.8125 C-1.42523193 32.12341553 -1.60046387 31.43433105 -1.78100586 30.72436523 C-2.65548871 27.08413764 -3.20360608 23.7448976 -3 20 C-2.34 20.99 -1.68 21.98 -1 23 C-0.67 23.33 -0.34 23.66 0 24 C0 22.35 0 20.7 0 19 C0.33 19 0.66 19 1 19 C1.12068471 12.60371021 0.65486092 6.36150605 0 0 Z " fill="#0E0B05" transform="translate(287,219)"/>
<path d="M0 0 C0.495 1.485 0.495 1.485 1 3 C-0.55166984 5.31837729 -2.14143156 7.44934356 -3.875 9.625 C-14.11333529 23.07716251 -20.97021106 37.89997465 -26 54 C-26.2259082 54.70688965 -26.45181641 55.4137793 -26.68457031 56.14208984 C-36.77958913 89.30368391 -29.40586374 127.0551661 -13.97265625 157.1953125 C-11.92772392 160.98952429 -9.58912792 164.55763675 -7 168 C-7.33 168.66 -7.66 169.32 -8 170 C-29.78231061 142.13486329 -39.42492731 106.18942051 -35.375 71.0625 C-31.58211785 48.22507578 -22.08456263 26.34977128 -8 8 C-7.34 8 -6.68 8 -6 8 C-5.7525 7.4225 -5.505 6.845 -5.25 6.25 C-3.83316683 3.6997003 -2.12372463 1.98214299 0 0 Z " fill="#090703" transform="translate(142,166)"/>
<path d="M0 0 C0.66 0.33 1.32 0.66 2 1 C0.68 4.3 -0.64 7.6 -2 11 C-2.66 10.67 -3.32 10.34 -4 10 C-7.60979099 19.20555112 -11.05453704 28.27268522 -13 38 C-13.20496094 39.00417969 -13.40992187 40.00835937 -13.62109375 41.04296875 C-19.38855353 74.33513314 -12.13807647 109.96850052 6.984375 137.81640625 C9 141 9 141 10.390625 144.484375 C12.31809883 148.69487609 14.78768595 151.41699186 18 154.6875 C19.06411335 155.79402366 20.12665875 156.90205769 21.1875 158.01171875 C21.92419922 158.78008057 21.92419922 158.78008057 22.67578125 159.56396484 C24.25861917 161.28045685 25.66054768 163.08848992 27 165 C26.01 165.33 25.02 165.66 24 166 C6.25012661 149.11246864 -8.24093778 130.54753726 -16 107 C-16.21640137 106.34918457 -16.43280273 105.69836914 -16.65576172 105.02783203 C-25.73079015 77.3493192 -26.70644136 44.7326896 -17 17 C-16.01 17 -15.02 17 -14 17 C-15.02041052 21.78808015 -16.12654842 26.48848291 -17.5 31.1875 C-22.75442292 50.47149885 -21.81951123 69.59576776 -18 89 C-17.80664062 90.0415625 -17.61328125 91.083125 -17.4140625 92.15625 C-13.56576303 109.9483878 -4.99907342 127.56371614 6 142 C5.5153125 141.19820312 5.030625 140.39640625 4.53125 139.5703125 C-9.6412317 115.53160316 -17.45912636 91.44944784 -17.375 63.375 C-17.37318726 62.25165756 -17.37318726 62.25165756 -17.37133789 61.10562134 C-17.29041759 42.59337633 -13.64739248 27.23216955 -6.90234375 10.0234375 C-6.60835693 9.26981934 -6.31437012 8.51620117 -6.01147461 7.73974609 C-5 6 -5 6 -2 5 C-0.78130071 2.49552484 -0.78130071 2.49552484 0 0 Z " fill="#9A773B" transform="translate(128,193)"/>
<path d="M0 0 C11.01894847 11.01894847 11.20606345 37.30286226 11.25 51.9375 C11.24320114 68.79050379 8.06877154 84.00744028 3 100 C2.31722872 102.32912655 1.65680256 104.6633568 1 107 C0.34 107 -0.32 107 -1 107 C-1.28875 107.86625 -1.5775 108.7325 -1.875 109.625 C-2.24625 110.73875 -2.6175 111.8525 -3 113 C-3.309375 114.051875 -3.61875 115.10375 -3.9375 116.1875 C-5 119 -5 119 -6.3125 120.30078125 C-8.62265319 122.62697717 -10.25312222 125.2678724 -12.0625 128 C-19.11100119 138.42309584 -27.92658189 147.26153779 -37.0625 155.875 C-37.89910156 156.67679688 -38.73570312 157.47859375 -39.59765625 158.3046875 C-40.39042969 158.86414063 -41.18320312 159.42359375 -42 160 C-44.15014648 159.60595703 -44.15014648 159.60595703 -46 159 C-45.38910522 158.4423999 -45.38910522 158.4423999 -44.76586914 157.87353516 C-17.0328621 132.48388701 4.48898549 100.85062831 6.22436523 61.91186523 C6.36485666 57.44125376 6.38448692 52.97249792 6.375 48.5 C6.37578552 47.71096283 6.37657104 46.92192566 6.37738037 46.10897827 C6.36314246 34.14261645 5.51416147 22.77314723 2.54003906 11.13134766 C1.60505827 7.44130138 0.81318867 3.71845019 0 0 Z " fill="#090703" transform="translate(380,205)"/>
<path d="M0 0 C3.5320826 3.47501125 6.88037094 7.0569578 10.1875 10.75 C25.50578987 27.56395426 50.52563216 47.95718801 74.3125 49.65625 C78.68076907 50.21498209 82.90442492 51.40756148 87.15283203 52.54101562 C104.46558812 57.10082413 131.60352566 58.19823717 148 50 C151 49.75 151 49.75 154 50 C154.66 50.99 155.32 51.98 156 53 C150.25 54 150.25 54 148 54 C147.01 54.66 146.02 55.32 145 56 C142.66705225 56.04241723 140.33297433 56.04092937 138 56 C135.54892612 56.4765977 133.37797029 57.20734324 131 58 C129.51876453 58.0806622 128.03417796 58.10761193 126.55078125 58.09765625 C125.70322266 58.09443359 124.85566406 58.09121094 123.98242188 58.08789062 C123.10134766 58.07951172 122.22027344 58.07113281 121.3125 58.0625 C119.97348633 58.05573242 119.97348633 58.05573242 118.60742188 58.04882812 C116.40491927 58.03705004 114.20245115 58.01911481 112 58 C117.28 58.33 122.56 58.66 128 59 C128 59.33 128 59.66 128 60 C90.19269488 61.44099615 47.97644108 52.22419847 19 26 C16 22.46103896 16 22.46103896 16 20 C14.50628899 18.41182506 12.95346653 16.87896663 11.375 15.375 C7.15964097 11.24346914 3.06436377 7.08235942 0 2 C0 1.34 0 0.68 0 0 Z " fill="#C4974C" transform="translate(137,336)"/>
<path d="M0 0 C1.13566406 0.02835937 2.27132812 0.05671875 3.44140625 0.0859375 C39.46837903 1.69053226 69.58093268 18.52775346 94.75 43.375 C95.63284668 44.24366699 96.51569336 45.11233398 97.42529297 46.00732422 C98.24916504 46.8376416 99.07303711 47.66795898 99.921875 48.5234375 C100.66018555 49.26513184 101.39849609 50.00682617 102.15917969 50.77099609 C104.0984519 53.11921297 104.98058863 55.15089811 106 58 C107.34137001 60.17903053 108.70670109 62.31050189 110.125 64.4375 C113.38917671 69.45362837 116.6157208 74.48832528 119.6875 79.625 C120.37199219 80.75164062 121.05648437 81.87828125 121.76171875 83.0390625 C123 86 123 86 122.20703125 88.3984375 C121.60955078 89.19121094 121.60955078 89.19121094 121 90 C120.52691406 88.92363281 120.05382812 87.84726563 119.56640625 86.73828125 C114.72592854 75.96239689 109.26091882 66.54522993 101.83984375 57.3125 C100 55 100 55 98.3125 52.25 C92.64479535 44.28457724 85.69298588 38.81160497 77.40625 33.7265625 C75 32 75 32 74 29 C72.50087722 27.70526638 72.50087722 27.70526638 70.59765625 26.58203125 C69.8819043 26.13625732 69.16615234 25.6904834 68.42871094 25.23120117 C67.64786133 24.76302979 66.86701172 24.2948584 66.0625 23.8125 C64.84675293 23.08220581 64.84675293 23.08220581 63.60644531 22.3371582 C33.91390304 4.86335552 -0.56058653 -2.52967586 -34.3671875 6.22265625 C-37.7641017 6.94952284 -38.86705784 6.9693915 -42 6 C-42 5.34 -42 4.68 -42 4 C-28.04700212 0.53355209 -14.36739394 -0.4067988 0 0 Z " fill="#8B6B36" transform="translate(255,110)"/>
<path d="M0 0 C6.54506414 2.43444459 13.01822238 4.84464406 19.2109375 8.0859375 C22.07527597 9.54937681 25.03183862 10.76326609 28 12 C27.67 12.66 27.34 13.32 27 14 C27.73863281 14.44988281 28.47726562 14.89976562 29.23828125 15.36328125 C39.03578171 21.5754194 47.862512 28.34875727 53 39 C54.47786652 40.7894414 54.47786652 40.7894414 56.125 42.375 C59.66556586 46.26962244 62.19519793 50.49190571 64.75 55.0625 C65.12656738 55.73522949 65.50313477 56.40795898 65.89111328 57.10107422 C68.19507559 61.3087124 70.1767931 65.56314523 72 70 C72.99 70 73.98 70 75 70 C78.13062556 75.50990099 78.13062556 75.50990099 77.49609375 77.890625 C76.836569 80.69490345 77.54734578 82.30628806 78.5 85 C79.72626939 88.4673824 80.23689765 90.48460668 79 94 C78.34 94 77.68 94 77 94 C76.63648438 92.83984375 76.27296875 91.6796875 75.8984375 90.484375 C73.23489969 82.14953128 70.42617682 74.26726686 66.2890625 66.5234375 C65.17452642 64.34164868 64.40115092 62.33125968 63.6875 60 C60.15396161 50.03996783 51.12989768 41.55574482 44 34 C43.26523437 33.18917969 42.53046875 32.37835938 41.7734375 31.54296875 C31.18590552 20.30035536 18.10791589 12.71015495 4.44921875 5.77734375 C1 4 1 4 -2 2 C-1.34 2 -0.68 2 0 2 C0 1.34 0 0.68 0 0 Z " fill="#271E0F" transform="translate(304,128)"/>
<path d="M0 0 C0.495 0.99 0.495 0.99 1 2 C1.66 2 2.32 2 3 2 C2.09193391 4.96167815 1.50569715 6.63201637 -1.03686523 8.48217773 C-2.28512085 9.07687866 -2.28512085 9.07687866 -3.55859375 9.68359375 C-4.49227783 10.13347656 -5.42596191 10.58335937 -6.38793945 11.046875 C-7.39429443 11.50578125 -8.40064941 11.9646875 -9.4375 12.4375 C-10.47285889 12.91832031 -11.50821777 13.39914062 -12.57495117 13.89453125 C-34.87611248 24.02131463 -55.61190691 27.99626403 -80 26 C-80.33 25.34 -80.66 24.68 -81 24 C-76.05 24 -71.1 24 -66 24 C-66 23.67 -66 23.34 -66 23 C-65.32453125 23.01160156 -64.6490625 23.02320313 -63.953125 23.03515625 C-63.06109375 23.04417969 -62.1690625 23.05320312 -61.25 23.0625 C-60.36828125 23.07410156 -59.4865625 23.08570313 -58.578125 23.09765625 C-56.20542872 23.00778139 -54.27742404 22.61760652 -52 22 C-50.33376361 21.96213099 -48.66602403 21.95372155 -47 22 C-47 21.34 -47 20.68 -47 20 C-45.865625 19.855625 -44.73125 19.71125 -43.5625 19.5625 C-40.19222799 19.38828522 -40.19222799 19.38828522 -39 18 C-37.68415494 17.4507858 -36.35450702 16.93451704 -35.01953125 16.43359375 C-26.14037546 13.03600608 -8.5290298 0 0 0 Z " fill="#644D26" transform="translate(329,369)"/>
<path d="M0 0 C0.99 0.33 1.98 0.66 3 1 C0.27280331 13.21040334 -3.21474155 24.7290959 -13.1875 33.00390625 C-15 34 -15 34 -18.375 33.4375 C-21 32 -21 32 -22 31 C-21.86553446 24.54565429 -19.21220034 19.84353716 -15 15 C-13.68101114 14.30538456 -12.3471067 13.63837745 -11 13 C-9.1875133 11.35420648 -9.1875133 11.35420648 -7.5 9.5 C-5.12951723 6.95711848 -3.10310273 5.52525389 0 4 C0.33 3.34 0.66 2.68 1 2 C0.34 1.67 -0.32 1.34 -1 1 C-0.67 0.67 -0.34 0.34 0 0 Z " fill="#191309" transform="translate(327,251)"/>
<path d="M0 0 C5.83745487 8.7561823 4.36135562 21.39556778 4.3125 31.5625 C4.31034485 32.3643573 4.3081897 33.1662146 4.30596924 33.99237061 C4.25609598 45.52981424 4.08968881 56.80716505 1 68 C0.80132324 68.72703125 0.60264648 69.4540625 0.39794922 70.203125 C-6.49251703 94.48234089 -19.72530802 115.63864708 -37.3125 133.625 C-37.81628174 134.14658691 -38.32006348 134.66817383 -38.83911133 135.20556641 C-41.39572962 137.75663333 -43.31238584 139.6321145 -47 140 C-45.5104394 136.37324375 -43.48666736 134.49519045 -40.5 132 C-19.19679574 113.17604796 -5.69830764 85.58814795 0 58 C0.16846436 57.21447754 0.33692871 56.42895508 0.51049805 55.61962891 C1.89222878 48.73990232 2.34747764 42.13385275 2.3125 35.125 C2.31165405 33.51818359 2.31165405 33.51818359 2.31079102 31.87890625 C2.20721122 22.70430871 1.09658546 13.8443006 -0.44140625 4.8125 C-0.62574219 3.554375 -0.81007813 2.29625 -1 1 C-0.67 0.67 -0.34 0.34 0 0 Z " fill="#B78D47" transform="translate(383,221)"/>
<path d="M0 0 C2.475 0.495 2.475 0.495 5 1 C5 1.66 5 2.32 5 3 C5.66 3 6.32 3 7 3 C7 3.66 7 4.32 7 5 C7.66 5 8.32 5 9 5 C9 5.66 9 6.32 9 7 C10.32 7.66 11.64 8.32 13 9 C13 9.66 13 10.32 13 11 C13.66 11 14.32 11 15 11 C16.39489126 13.57426284 17.76570979 16.15703057 19.125 18.75 C19.52332031 19.47960937 19.92164063 20.20921875 20.33203125 20.9609375 C20.69941406 21.66992188 21.06679687 22.37890625 21.4453125 23.109375 C21.96375732 24.08342285 21.96375732 24.08342285 22.49267578 25.07714844 C23 27 23 27 22.09716797 29.24316406 C21.73510254 29.82291992 21.37303711 30.40267578 21 31 C13.1418297 27.66027762 7.55762617 23.07370661 4.125 15.125 C2.26171193 10.14368441 0.95821987 5.22665382 0 0 Z " fill="#1D160B" transform="translate(160,207)"/>
<path d="M0 0 C1.65 0.33 3.3 0.66 5 1 C2.23335586 4.39305414 -1.57159147 5.86652595 -5.4375 7.6875 C-29.91396194 19.60443431 -52.25736787 39.10561988 -64 64 C-64.98485106 65.01492285 -65.98387416 66.01639018 -67 67 C-67.495 67.99 -67.495 67.99 -68 69 C-68.66 68.67 -69.32 68.34 -70 68 C-64.70529989 57.84482122 -58.75253603 48.57348233 -51.78662109 39.47338867 C-49.34856626 36.27339913 -47.16639491 33.33679933 -45.37890625 29.71875 C-43.78791016 26.58182853 -41.99308681 24.87824688 -39.3125 22.625 C-38.50425781 21.93664062 -37.69601563 21.24828125 -36.86328125 20.5390625 C-36.24839844 20.03117187 -35.63351563 19.52328125 -35 19 C-34.34 19.33 -33.68 19.66 -33 20 C-35.97 22.97 -38.94 25.94 -42 29 C-39.48847754 27.00872148 -37.00169225 25.00144275 -34.5625 22.921875 C-24.00106434 13.97041429 -12.20921813 7.3943532 0 1 C0 0.67 0 0.34 0 0 Z " fill="#C0944A" transform="translate(194,129)"/>
<path d="M0 0 C0.66 0.33 1.32 0.66 2 1 C0.68 4.3 -0.64 7.6 -2 11 C-2.66 10.67 -3.32 10.34 -4 10 C-7.60979099 19.20555112 -11.05453704 28.27268522 -13 38 C-13.30744141 39.50626953 -13.30744141 39.50626953 -13.62109375 41.04296875 C-19.11098347 72.7328839 -12.97897166 107.94386731 5 134.8125 C5.41032471 135.39378662 5.82064941 135.97507324 6.2434082 136.57397461 C7.23334397 138.00260036 8.12592751 139.49768791 9 141 C8.67 141.99 8.34 142.98 8 144 C-0.87728804 131.03340566 -7.77292386 117.81889708 -12.375 102.75 C-12.61371826 101.97124512 -12.85243652 101.19249023 -13.09838867 100.39013672 C-16.61139037 88.1956375 -17.41280242 75.99033313 -17.375 63.375 C-17.3737915 62.62610504 -17.37258301 61.87721008 -17.37133789 61.10562134 C-17.29041759 42.59337633 -13.64739248 27.23216955 -6.90234375 10.0234375 C-6.60835693 9.26981934 -6.31437012 8.51620117 -6.01147461 7.73974609 C-5 6 -5 6 -2 5 C-0.78130071 2.49552484 -0.78130071 2.49552484 0 0 Z " fill="#9A773C" transform="translate(128,193)"/>
<path d="M0 0 C0.33 0 0.66 0 1 0 C0.36067443 8.27318838 -0.45661179 16.51053902 -1.4375 24.75 C-1.55931641 25.82121094 -1.68113281 26.89242187 -1.80664062 27.99609375 C-2.49718517 33.81384206 -3.42523156 39.35537548 -5 45 C-5.33 45 -5.66 45 -6 45 C-6.10152799 38.2314676 -6.03026944 31.69675136 -5 25 C-5.99 28.3 -6.98 31.6 -8 35 C-9 31 -9 31 -9 28 C-9.66 28.99 -10.32 29.98 -11 31 C-10.28392833 25.21336676 -8.46497748 19.87972601 -6.625 14.375 C-6.16867188 12.96347656 -6.16867188 12.96347656 -5.703125 11.5234375 C-5.40148437 10.6159375 -5.09984375 9.7084375 -4.7890625 8.7734375 C-4.51787598 7.95278809 -4.24668945 7.13213867 -3.96728516 6.28662109 C-2.93552666 3.84758777 -1.71488017 2.01156426 0 0 Z " fill="#241B0D" transform="translate(192,183)"/>
<path d="M0 0 C0.99 0 1.98 0 3 0 C1.97958948 4.78808015 0.87345158 9.48848291 -0.5 14.1875 C-6.85560798 37.51290392 -4.31096613 60.98979202 2 84 C2.3998978 85.58231167 2.7962069 87.16553852 3.1875 88.75 C3.455625 89.8225 3.72375 90.895 4 92 C3.34 92 2.68 92 2 92 C-8.79693321 63.40048989 -10.19166662 29.11904749 0 0 Z " fill="#AB8442" transform="translate(111,210)"/>
<path d="M0 0 C5.58950546 2.40128201 9.39789336 7.06962057 13.625 11.3125 C14.49640625 12.16779297 15.3678125 13.02308594 16.265625 13.90429688 C17.09835937 14.73638672 17.93109375 15.56847656 18.7890625 16.42578125 C19.54912598 17.18286377 20.30918945 17.93994629 21.09228516 18.7199707 C23.07964634 21.09519032 23.97072263 23.10273125 25 26 C26.34137001 28.17903053 27.70670109 30.31050189 29.125 32.4375 C32.38917671 37.45362837 35.6157208 42.48832528 38.6875 47.625 C39.71423828 49.31496094 39.71423828 49.31496094 40.76171875 51.0390625 C42 54 42 54 41.20703125 56.3984375 C40.80871094 56.92695313 40.41039062 57.45546875 40 58 C39.52691406 56.92363281 39.05382812 55.84726563 38.56640625 54.73828125 C33.72592854 43.96239689 28.26091882 34.54522993 20.83984375 25.3125 C19 23 19 23 17.3125 20.25 C12.35325037 13.28024376 6.11550389 7.69320469 -1 3 C-0.67 2.01 -0.34 1.02 0 0 Z " fill="#AB8442" transform="translate(336,142)"/>
<path d="M0 0 C2.9375 0.8125 2.9375 0.8125 6 2 C6.33 2.99 6.66 3.98 7 5 C8.63414461 6.14393249 8.63414461 6.14393249 10.69140625 7.05859375 C11.46315186 7.43773926 12.23489746 7.81688477 13.0300293 8.20751953 C14.28360229 8.81635986 14.28360229 8.81635986 15.5625 9.4375 C36.19496205 19.93869302 61.82959574 38.92237896 70.2890625 61.4296875 C70.52367187 62.27789062 70.75828125 63.12609375 71 64 C68.09471013 61.37616009 66.14774943 58.31965676 64 55.0625 C59.28004949 48.08043526 53.83765272 42.05612775 48 36 C47.34515625 35.28199219 46.6903125 34.56398437 46.015625 33.82421875 C33.26952318 20.23382386 15.28322542 10.51394292 -2 4 C-1.34 2.68 -0.68 1.36 0 0 Z " fill="#B08844" transform="translate(298,126)"/>
<path d="M0 0 C0 0.66 0 1.32 0 2 C2.64 1.34 5.28 0.68 8 0 C8.495 0.99 8.495 0.99 9 2 C8.44763672 2.27038086 7.89527344 2.54076172 7.32617188 2.81933594 C-8.37454501 10.57863803 -21.80604276 19.53891286 -35 31 C-33.57567584 28.02183282 -32.22096735 26.02068318 -29.8125 23.75 C-27.2475928 21.27499677 -24.90328669 18.74031685 -22.625 16 C-18.91154452 11.66904509 -14.60256064 8.33972654 -10 5 C-9.34 5.33 -8.68 5.66 -8 6 C-5.92638012 5.75243555 -5.92638012 5.75243555 -4 5 C-3.67 4.34 -3.34 3.68 -3 3 C-3.66 2.67 -4.32 2.34 -5 2 C-2 0 -2 0 0 0 Z " fill="#594522" transform="translate(186,129)"/>
<path d="M0 0 C0.495 0.99 0.495 0.99 1 2 C-0.0160826 4.50206527 -1.092361 6.84831452 -2.3125 9.25 C-2.67496826 9.96510742 -3.03743652 10.68021484 -3.41088867 11.41699219 C-9.84101802 23.74560992 -18.39101177 34.03730668 -28 44 C-29.04414063 45.12148438 -29.04414063 45.12148438 -30.109375 46.265625 C-34.8576702 51.25742252 -34.8576702 51.25742252 -39 52 C-37.5104394 48.37324375 -35.48666736 46.49519045 -32.5 44 C-19.71338506 32.70148249 -9.97637543 18.22370912 -2.9375 2.72265625 C-2 1 -2 1 0 0 Z " fill="#BF934A" transform="translate(375,309)"/>
<path d="M0 0 C0.66 0.99 1.32 1.98 2 3 C-3.75 4 -3.75 4 -6 4 C-6.99 4.66 -7.98 5.32 -9 6 C-11.33294775 6.04241723 -13.66702567 6.04092937 -16 6 C-18.45107388 6.4765977 -20.62202971 7.20734324 -23 8 C-24.48123547 8.0806622 -25.96582204 8.10761193 -27.44921875 8.09765625 C-28.29677734 8.09443359 -29.14433594 8.09121094 -30.01757812 8.08789062 C-30.89865234 8.07951172 -31.77972656 8.07113281 -32.6875 8.0625 C-33.58017578 8.05798828 -34.47285156 8.05347656 -35.39257812 8.04882812 C-37.59508073 8.03705004 -39.79754885 8.01911481 -42 8 C-36.72 8.33 -31.44 8.66 -26 9 C-26 9.33 -26 9.66 -26 10 C-34.91 10 -43.82 10 -53 10 C-51.68 9.67 -50.36 9.34 -49 9 C-49 8.34 -49 7.68 -49 7 C-47.68563965 6.84180786 -47.68563965 6.84180786 -46.34472656 6.68041992 C-43.03387655 6.2782385 -39.72401155 5.86921153 -36.41455078 5.45581055 C-34.99332939 5.27964065 -33.5717849 5.10605427 -32.14990234 4.93530273 C-24.16017776 3.97394208 -16.39678854 2.81526822 -8.63964844 0.5793457 C-5.62753259 -0.08174854 -3.07273757 -0.3003367 0 0 Z " fill="#B18844" transform="translate(291,386)"/>
<path d="M0 0 C4.13447496 1.81916898 5.80772735 4.02143111 8 8 C7.67 8.99 7.34 9.98 7 11 C6.34 10.01 5.68 9.02 5 8 C5.33 10.64 5.66 13.28 6 16 C5.34 15.01 4.68 14.02 4 13 C3.78113964 22.00975148 4.10544549 30.16356635 6 39 C6.37132802 41.3299813 6.68815418 43.66115636 7 46 C3.70529252 42.70529252 2.77443573 38.20140188 1.21875 33.87109375 C0.31934066 30.8894309 0.31934066 30.8894309 -2 30 C-2.4140625 27.71484375 -2.4140625 27.71484375 -2.625 24.9375 C-2.69976562 24.01839844 -2.77453125 23.09929687 -2.8515625 22.15234375 C-2.90054687 21.44207031 -2.94953125 20.73179687 -3 20 C-2.34 20.99 -1.68 21.98 -1 23 C-0.67 23.33 -0.34 23.66 0 24 C0 22.35 0 20.7 0 19 C0.33 19 0.66 19 1 19 C1.12068471 12.60371021 0.65486092 6.36150605 0 0 Z " fill="#634C26" transform="translate(287,219)"/>
<path d="M0 0 C1.24652344 0.33773438 2.49304688 0.67546875 3.77734375 1.0234375 C14.83154745 3.94409515 25.6095884 6.01145392 37 7 C37 7.33 37 7.66 37 8 C35.35 8 33.7 8 32 8 C32 8.66 32 9.32 32 10 C25.08204495 10.4536364 18.86782644 9.54615966 12.125 8.125 C11.29250732 7.95129883 10.46001465 7.77759766 9.60229492 7.59863281 C5.76282163 6.75588809 2.48324011 5.87032084 -1 4 C-0.67 2.68 -0.34 1.36 0 0 Z " fill="#A57F40" transform="translate(210,385)"/>
<path d="M0 0 C2 3 2 3 2 7 C0.83492664 9.24341669 -0.36504909 11.35425857 -1.6875 13.5 C-5.4290632 19.77525942 -8.39545818 26.16307772 -11 33 C-11.99 32.67 -12.98 32.34 -14 32 C-13.40593649 26.53112124 -11.49814366 22.07587519 -9.25 17.125 C-8.74726562 15.97837891 -8.74726562 15.97837891 -8.234375 14.80859375 C-5.8927197 9.58421887 -3.15510128 4.77506796 0 0 Z " fill="#47371B" transform="translate(126,177)"/>
<path d="M0 0 C0.495 0.99 0.495 0.99 1 2 C-0.98 2.33 -2.96 2.66 -5 3 C-5 3.66 -5 4.32 -5 5 C-16.71973015 7.75656375 -27.66755973 9.32223392 -39.6875 8.6875 C-40.39567871 8.65301758 -41.10385742 8.61853516 -41.83349609 8.58300781 C-43.56269346 8.46679489 -45.28398434 8.24273284 -47 8 C-47.33 7.34 -47.66 6.68 -48 6 C-43.05 6 -38.1 6 -33 6 C-33 5.67 -33 5.34 -33 5 C-32.32453125 5.01160156 -31.6490625 5.02320313 -30.953125 5.03515625 C-30.06109375 5.04417969 -29.1690625 5.05320312 -28.25 5.0625 C-27.36828125 5.07410156 -26.4865625 5.08570313 -25.578125 5.09765625 C-23.20542872 5.00778139 -21.27742404 4.61760652 -19 4 C-17.33376361 3.96213099 -15.66602403 3.95372155 -14 4 C-14 3.34 -14 2.68 -14 2 C-12.865625 1.855625 -11.73125 1.71125 -10.5625 1.5625 C-7.19222799 1.38828522 -7.19222799 1.38828522 -6 0 C-3 -1 -3 -1 0 0 Z " fill="#48371C" transform="translate(296,387)"/>
<path d="M0 0 C3.16717283 1.58358642 4.73268318 2.45263699 6.3125 5.6875 C6.539375 6.450625 6.76625 7.21375 7 8 C7.99 8 8.98 8 10 8 C13.13062556 13.50990099 13.13062556 13.50990099 12.49609375 15.890625 C11.836569 18.69490345 12.54734578 20.30628806 13.5 23 C14.72626939 26.4673824 15.23689765 28.48460668 14 32 C13.34 32 12.68 32 12 32 C11.45472656 30.25976562 11.45472656 30.25976562 10.8984375 28.484375 C8.1887225 20.00811023 5.34983897 12.03047195 1.1015625 4.1875 C0 2 0 2 0 0 Z " fill="#816432" transform="translate(369,190)"/>
<path d="M0 0 C3.16545202 1.58272601 3.71120622 4.39683131 5.125 7.5625 C5.66382813 8.76003906 6.20265625 9.95757812 6.7578125 11.19140625 C7.16773438 12.11824219 7.57765625 13.04507813 8 14 C7.37609375 14.75667969 6.7521875 15.51335937 6.109375 16.29296875 C3.94813161 19.06656443 2.47916189 21.81980194 1 25 C0.34 25 -0.32 25 -1 25 C-1.12190678 16.60197746 -0.84327749 8.35748222 0 0 Z " fill="#1F180C" transform="translate(197,190)"/>
<path d="M0 0 C12.04307995 4.92021319 21.85076198 20.541252 26.74609375 31.91796875 C27.15988281 32.93503906 27.57367188 33.95210937 28 35 C27.01 35.495 27.01 35.495 26 36 C25.47792969 35.06800781 24.95585937 34.13601562 24.41796875 33.17578125 C18.34937939 22.57847735 11.45939953 13.27213513 2.66796875 4.75390625 C0 2 0 2 0 0 Z " fill="#130F07" transform="translate(345,157)"/>
<path d="M0 0 C3.78536223 5.67804335 3.63107119 11.36145889 3 18 C1.97470852 21.19676034 0.65117213 24.08096355 -1 27 C-2.953125 26.10546875 -2.953125 26.10546875 -5 24 C-5.67109063 20.78757885 -5.6973134 17.58625354 -5.75 14.3125 C-5.77964844 13.41982422 -5.80929687 12.52714844 -5.83984375 11.60742188 C-5.91051427 9.40485723 -5.96321939 7.20334869 -6 5 C-4.41223006 8.01954845 -3.67603312 10.33829127 -3.375 13.75 C-3.30023438 14.54921875 -3.22546875 15.3484375 -3.1484375 16.171875 C-3.09945313 16.77515625 -3.05046875 17.3784375 -3 18 C-2.01 17.34 -1.02 16.68 0 16 C0.33 16.33 0.66 16.66 1 17 C1 12.71 1 8.42 1 4 C0.34 4 -0.32 4 -1 4 C-0.67 7.3 -0.34 10.6 0 14 C-2.58926331 11.41073669 -2.37398043 9.97294721 -2.625 6.375 C-2.69976562 5.37210937 -2.77453125 4.36921875 -2.8515625 3.3359375 C-2.92503906 2.17964844 -2.92503906 2.17964844 -3 1 C-2.01 0.67 -1.02 0.34 0 0 Z " fill="#544020" transform="translate(302,252)"/>
<path d="M0 0 C3.10485441 1.45251852 5.97083543 3.20612566 8.87475586 5.02172852 C17.25264318 10.22995817 25.87866164 14.27235712 35 18 C35 18.66 35 19.32 35 20 C30.52676517 19.32901478 26.60268119 17.70203305 22.5 15.875 C21.80382568 15.5651416 21.10765137 15.2552832 20.39038086 14.93603516 C15.73666153 12.83674836 11.12183661 10.6723011 6.5625 8.375 C5.51191406 7.84648437 4.46132812 7.31796875 3.37890625 6.7734375 C1 5 1 5 0.15234375 2.2890625 C0.10207031 1.53367187 0.05179688 0.77828125 0 0 Z " fill="#3B2D16" transform="translate(173,366)"/>
<path d="M0 0 C2.475 0.495 2.475 0.495 5 1 C2.23362518 4.39272384 -1.571314 5.86761427 -5.4375 7.6875 C-13.56528323 11.62318441 -21.080609 16.13601026 -28.203125 21.73046875 C-30 23 -30 23 -32 23 C-30.48997607 18.5814065 -27.05857406 16.66179772 -23.3125 14.25 C-22.65564209 13.81896973 -21.99878418 13.38793945 -21.32202148 12.94384766 C-14.45410847 8.51309385 -7.28213154 4.69787672 0 1 C0 0.67 0 0.34 0 0 Z " fill="#C4974C" transform="translate(194,129)"/>
<path d="M0 0 C-0.33 0.66 -0.66 1.32 -1 2 C-2.07894531 2.02578125 -3.15789062 2.0515625 -4.26953125 2.078125 C-13.7217185 2.40391564 -22.60317326 3.4778173 -31.80395508 5.71582031 C-35.59638175 6.61655715 -38.26945841 7.16118944 -42 6 C-42 5.34 -42 4.68 -42 4 C-27.97424193 0.51547573 -14.43625131 -0.24607247 0 0 Z " fill="#866834" transform="translate(255,110)"/>
<path d="M0 0 C3.5320826 3.47501125 6.88037094 7.0569578 10.1875 10.75 C14.51001805 15.52771473 19.04472285 19.92210418 23.90625 24.16015625 C25.67773932 25.71681944 27.357204 27.30981565 29 29 C26.76953125 29.703125 26.76953125 29.703125 24 30 C21.76171875 28.671875 21.76171875 28.671875 19.6875 26.75 C18.99011719 26.12609375 18.29273438 25.5021875 17.57421875 24.859375 C16 23 16 23 16 20 C13.97774692 17.68776472 13.97774692 17.68776472 11.375 15.3125 C7.14222452 11.20598628 3.06201774 7.07846845 0 2 C0 1.34 0 0.68 0 0 Z " fill="#BE9249" transform="translate(137,336)"/>
<path d="M0 0 C0.66 0.33 1.32 0.66 2 1 C2 1.66 2 2.32 2 3 C-5.88545415 7.66288353 -13.77576755 12.17252932 -22.25 15.6875 C-23.45140625 16.18636719 -24.6528125 16.68523437 -25.890625 17.19921875 C-29.42000007 18.10816585 -30.00036967 17.7443767 -33 16 C-32.45698242 15.79431396 -31.91396484 15.58862793 -31.35449219 15.37670898 C-14.54318628 9.69497562 -14.54318628 9.69497562 0 0 Z " fill="#BC9149" transform="translate(322,369)"/>
<path d="M0 0 C0 0.66 0 1.32 0 2 C-2.68556531 3.12981038 -5.37328466 4.25393752 -8.0625 5.375 C-8.81466797 5.69210938 -9.56683594 6.00921875 -10.34179688 6.3359375 C-14.84461935 8.20724035 -19.28335002 9.75976534 -24 11 C-23.25 9.0625 -23.25 9.0625 -22 7 C-19.875 6.25 -19.875 6.25 -18 6 C-18 5.34 -18 4.68 -18 4 C-15.75438718 3.13237686 -13.50473745 2.2807897 -11.25 1.4375 C-10.61578125 1.19064453 -9.9815625 0.94378906 -9.328125 0.68945312 C-5.88990821 -0.58197079 -3.47831118 -1.46686355 0 0 Z " fill="#4E3C1E" transform="translate(212,116)"/>
<path d="M0 0 C8.98010895 4.50838123 16.94465525 10.04962855 25 16 C24.01 17.32 23.02 18.64 22 20 C18 16 18 16 16.34375 14.15625 C13.25850792 11.31782729 9.86420242 9.34746719 6.25 7.25 C5.55261719 6.83878906 4.85523438 6.42757812 4.13671875 6.00390625 C2.42765309 4.99719634 0.71425404 3.99784936 -1 3 C-0.67 2.01 -0.34 1.02 0 0 Z " fill="#816432" transform="translate(312,125)"/>
<path d="M0 0 C11.25054313 -0.39864129 21.42997228 1.12432317 32 5 C31.67 5.99 31.34 6.98 31 8 C25.29637697 7.32355953 19.91023543 6.01354094 14.375 4.5 C7.23682395 2.54106689 7.23682395 2.54106689 0 1 C0 0.67 0 0.34 0 0 Z " fill="#BF934A" transform="translate(266,121)"/>
<path d="M0 0 C0.495 0.99 0.495 0.99 1 2 C1.66 2 2.32 2 3 2 C2.67 2.99 2.34 3.98 2 5 C-0.90332307 6.21534454 -3.54384613 6.94798245 -6.671875 7.3046875 C-11.01278266 8.21159074 -14.61343035 10.02718966 -18.5625 12 C-27.46793969 16.42563988 -27.46793969 16.42563988 -32 17 C-30.74493789 14.48987578 -29.90389975 14.35400658 -27.3515625 13.30078125 C-26.59810547 12.98173828 -25.84464844 12.66269531 -25.06835938 12.33398438 C-24.26205078 11.99689453 -23.45574219 11.65980469 -22.625 11.3125 C-15.95392077 8.45497517 -9.94830517 5.38401345 -3.96875 1.25 C-2 0 -2 0 0 0 Z " fill="#1C160B" transform="translate(329,369)"/>
<path d="M0 0 C0.33 0 0.66 0 1 0 C1.13051758 0.84594727 1.26103516 1.69189453 1.39550781 2.56347656 C1.89427221 5.76308076 2.40240445 8.96102989 2.91650391 12.15820312 C3.13531753 13.53067394 3.35060743 14.90371215 3.56201172 16.27734375 C4.80757038 24.35281412 6.40995415 32.03580936 9.22167969 39.73339844 C10 42 10 42 10 44 C9.34 44 8.68 44 8 44 C2.45625033 29.31541117 -0.30126275 15.7326105 0 0 Z " fill="#96733A" transform="translate(105,258)"/>
<path d="M0 0 C3.81210782 3.76287395 7.49243123 7.62646227 11.125 11.5625 C11.91197266 12.40844727 11.91197266 12.40844727 12.71484375 13.27148438 C15.30908626 16.07917722 17.78445257 18.87531415 20 22 C19.01 22.33 18.02 22.66 17 23 C14.65453302 20.74141867 12.32587973 18.46623352 10 16.1875 C9.33226562 15.54490234 8.66453125 14.90230469 7.9765625 14.24023438 C7.34492188 13.61826172 6.71328125 12.99628906 6.0625 12.35546875 C5.47597656 11.78465576 4.88945312 11.21384277 4.28515625 10.62573242 C3 9 3 9 3 6 C2.01971384 4.65210653 1.02028865 3.31787285 0 2 C0 1.34 0 0.68 0 0 Z " fill="#8B6B36" transform="translate(135,336)"/>
<path d="M0 0 C7.19541408 2.67634304 14.21067348 5.40565066 21 9 C19.29296875 10.1015625 19.29296875 10.1015625 17 11 C14.73828125 10.4609375 14.73828125 10.4609375 12.3125 9.375 C11.44496094 8.99601563 10.57742188 8.61703125 9.68359375 8.2265625 C8.79800781 7.82179687 7.91242188 7.41703125 7 7 C6.12472656 6.61585938 5.24945313 6.23171875 4.34765625 5.8359375 C2.22544731 4.90390893 0.11041816 3.95835414 -2 3 C-1.34 2.67 -0.68 2.34 0 2 C0 1.34 0 0.68 0 0 Z " fill="#70572B" transform="translate(304,128)"/>
<path d="M0 0 C4.07762375 1.50615437 5.45674273 3.85537438 7.63671875 7.5234375 C8.29607422 8.626875 8.95542969 9.7303125 9.63476562 10.8671875 C9.97161377 11.44307617 10.30846191 12.01896484 10.65551758 12.61230469 C11.68374266 14.36858221 12.72807763 16.11442713 13.77539062 17.859375 C19.69068432 27.84034254 19.69068432 27.84034254 20 31 C19.34 31.66 18.68 32.32 18 33 C17.52691406 31.92363281 17.05382812 30.84726563 16.56640625 29.73828125 C12.65983439 21.0461339 8.44765879 13.21209338 2.78515625 5.5390625 C1 3 1 3 0 0 Z " fill="#B38A45" transform="translate(358,167)"/>
<path d="M0 0 C0.99 0.33 1.98 0.66 3 1 C1.98679688 2.37671875 1.98679688 2.37671875 0.953125 3.78125 C-3.59345622 10.01697409 -7.69896604 16.00180801 -11 23 C-11.98485106 24.01492285 -12.98387416 25.01639018 -14 26 C-14.33 26.66 -14.66 27.32 -15 28 C-15.66 27.67 -16.32 27.34 -17 27 C-11.86517363 17.52672079 -6.62896996 8.52554175 0 0 Z " fill="#BD9249" transform="translate(141,170)"/>
<path d="M0 0 C1.60332791 -0.08121924 3.20784026 -0.13929134 4.8125 -0.1875 C6.15248047 -0.23970703 6.15248047 -0.23970703 7.51953125 -0.29296875 C10.41647515 0.04918998 11.22555028 0.75393573 13 3 C12.67 3.33 12.34 3.66 12 4 C12.94875 4.5775 13.8975 5.155 14.875 5.75 C17.76134098 7.82816551 18.84095741 8.75468075 20 12 C19.44054687 11.71898437 18.88109375 11.43796875 18.3046875 11.1484375 C16.75151764 10.37448506 15.19409488 9.60901633 13.6328125 8.8515625 C8.8505873 6.51259254 4.29139339 4.16207934 0 1 C0 0.67 0 0.34 0 0 Z " fill="#503D1F" transform="translate(319,138)"/>
<path d="M0 0 C7.56634615 -0.37211538 7.56634615 -0.37211538 9.76171875 1.51171875 C10.17035156 2.00285156 10.57898438 2.49398438 11 3 C5.08018906 3.95139819 -0.53463966 4.02149112 -6.5 3.6875 C-7.21865234 3.65277588 -7.93730469 3.61805176 -8.67773438 3.58227539 C-10.4586282 3.46617645 -12.23181937 3.24207235 -14 3 C-14.33 2.34 -14.66 1.68 -15 1 C-10.05 1 -5.1 1 0 1 C0 0.67 0 0.34 0 0 Z " fill="#4F3D1E" transform="translate(263,392)"/>
<path d="M0 0 C2.625 0.375 2.625 0.375 5 1 C5.625 3.375 5.625 3.375 6 6 C5.34 6.66 4.68 7.32 4 8 C1.375 7.625 1.375 7.625 -1 7 C-1.625 4.625 -1.625 4.625 -2 2 C-1.34 1.34 -0.68 0.68 0 0 Z " fill="#C3964B" transform="translate(95,269)"/>
<path d="M0 0 C9.92232704 -0.34390607 19.49653638 -0.40189667 29 3 C29.33 3.66 29.66 4.32 30 5 C23.55352504 4.45803972 17.22519991 3.58000877 10.8515625 2.4765625 C7.24320852 1.87352252 3.63382871 1.41928793 0 1 C0 0.67 0 0.34 0 0 Z " fill="#A68040" transform="translate(254,111)"/>
<path d="M0 0 C2.625 0.375 2.625 0.375 5 1 C5.625 3.375 5.625 3.375 6 6 C5.34 6.66 4.68 7.32 4 8 C1.375 7.625 1.375 7.625 -1 7 C-1.625 4.625 -1.625 4.625 -2 2 C-1.34 1.34 -0.68 0.68 0 0 Z " fill="#C4974C" transform="translate(351,325)"/>
<path d="M0 0 C0.66 0.33 1.32 0.66 2 1 C1.10539062 1.61746094 0.21078125 2.23492187 -0.7109375 2.87109375 C-7.57331939 7.66010762 -14.00978938 12.53902344 -20.109375 18.28515625 C-22 20 -22 20 -24 21 C-20.50633891 13.24201729 -13.56539806 8.45337856 -6.625 3.9375 C-6.00592773 3.53120361 -5.38685547 3.12490723 -4.74902344 2.70629883 C-3.20736496 1.73522387 -1.60712456 0.85839855 0 0 Z " fill="#1E170B" transform="translate(175,139)"/>
<path d="M0 0 C0.99 0.33 1.98 0.66 3 1 C2.67 1.33 2.34 1.66 2 2 C2.99 2.33 3.98 2.66 5 3 C2.75438718 3.86762314 0.50473745 4.7192103 -1.75 5.5625 C-2.38421875 5.80935547 -3.0184375 6.05621094 -3.671875 6.31054688 C-7.11009179 7.58197079 -9.52168882 8.46686355 -13 7 C-12.01 6.34 -11.02 5.68 -10 5 C-9.67 4.01 -9.34 3.02 -9 2 C-7.329375 1.7834375 -7.329375 1.7834375 -5.625 1.5625 C-2.17857953 1.21627965 -2.17857953 1.21627965 0 0 Z " fill="#71572B" transform="translate(304,383)"/>
<path d="M0 0 C4.40408789 2.20204395 5.66652994 3.76518396 8 8 C7.67 8.99 7.34 9.98 7 11 C6.34 10.01 5.68 9.02 5 8 C5.33 10.64 5.66 13.28 6 16 C4 13 4 13 3 10 C2.01 10.495 2.01 10.495 1 11 C0.67 7.37 0.34 3.74 0 0 Z " fill="#47361B" transform="translate(287,219)"/>
<path d="M0 0 C0.66 0.33 1.32 0.66 2 1 C1.8984375 2.734375 1.8984375 2.734375 1 5 C-1.11551683 6.5968364 -3.10153619 7.92707925 -5.375 9.25 C-5.96539062 9.61351562 -6.55578125 9.97703125 -7.1640625 10.3515625 C-9.98527245 12.04174684 -11.65629056 13 -15 13 C-10.35827355 8.09717644 -5.50719921 3.90510489 0 0 Z " fill="#816432" transform="translate(176,134)"/>
<path d="M0 0 C2.5625 0.1875 2.5625 0.1875 4.5625 2.1875 C4.02678571 5.72321429 4.02678571 5.72321429 2.5625 7.1875 C0.0625 7.3125 0.0625 7.3125 -2.4375 7.1875 C-3.4375 6.1875 -3.4375 6.1875 -3.5625 3.6875 C-3.39599509 0.35740177 -3.31519894 0.2550153 0 0 Z " fill="#C99B4E" transform="translate(210.4375,372.8125)"/>
<path d="M0 0 C2.625 0.375 2.625 0.375 5 1 C5.38218767 2.65614657 5.71395102 4.32457024 6 6 C5 7 5 7 1.9375 7.0625 C0.968125 7.041875 -0.00125 7.02125 -1 7 C-1.625 4.625 -1.625 4.625 -2 2 C-1.34 1.34 -0.68 0.68 0 0 Z " fill="#CA9C4E" transform="translate(127,210)"/>
<path d="M0 0 C3.53571429 0.53571429 3.53571429 0.53571429 5 2 C5.125 4.5 5.125 4.5 5 7 C4 8 4 8 1.5 8.125 C-1 8 -1 8 -2 7 C-2.1875 4.5625 -2.1875 4.5625 -2 2 C-1.34 1.34 -0.68 0.68 0 0 Z " fill="#C89A4D" transform="translate(364,156)"/>
<path d="M0 0 C2.5625 0.1875 2.5625 0.1875 4.5625 2.1875 C4.02678571 5.72321429 4.02678571 5.72321429 2.5625 7.1875 C0.0625 7.3125 0.0625 7.3125 -2.4375 7.1875 C-3.4375 6.1875 -3.4375 6.1875 -3.5625 3.6875 C-3.39599509 0.35740177 -3.31519894 0.2550153 0 0 Z " fill="#C99B4E" transform="translate(167.4375,119.8125)"/>
<path d="M0 0 C2.5 0.125 2.5 0.125 3.5 1.125 C3.6875 3.5625 3.6875 3.5625 3.5 6.125 C2.84 6.785 2.18 7.445 1.5 8.125 C-2.03571429 7.58928571 -2.03571429 7.58928571 -3.5 6.125 C-3.625 3.625 -3.625 3.625 -3.5 1.125 C-2.5 0.125 -2.5 0.125 0 0 Z " fill="#C89A4D" transform="translate(298.5,106.875)"/>
<path d="M0 0 C4.20934535 6.31401802 4.27967756 14.58854456 4 22 C3.34 22 2.68 22 2 22 C1.47017156 18.52214039 0.95264814 15.04256189 0.4375 11.5625 C0.28603516 10.56927734 0.13457031 9.57605469 -0.02148438 8.55273438 C-0.16005859 7.60849609 -0.29863281 6.66425781 -0.44140625 5.69140625 C-0.57232666 4.81685791 -0.70324707 3.94230957 -0.83813477 3.04125977 C-0.89155029 2.36764404 -0.94496582 1.69402832 -1 1 C-0.67 0.67 -0.34 0.34 0 0 Z " fill="#9C783C" transform="translate(383,221)"/>
<path d="M0 0 C0.99 0 1.98 0 3 0 C1.66666667 6 0.33333333 12 -1 18 C-1.33 17.34 -1.66 16.68 -2 16 C-2.66 16 -3.32 16 -4 16 C-2.68 10.72 -1.36 5.44 0 0 Z " fill="#7D6030" transform="translate(111,210)"/>
<path d="M0 0 C3.04270694 4.56406041 1.77933007 8.73773456 1 14 C0.43607837 16.71360784 -0.24452492 19.33065471 -1 22 C-1.33 22 -1.66 22 -2 22 C-2.23576736 14.37685526 -1.83717315 7.41430591 0 0 Z " fill="#392C16" transform="translate(188,206)"/>
<path d="M0 0 C2.62187494 1.04874998 3.79371361 1.64931313 5.25 4.125 C5.4975 4.74375 5.745 5.3625 6 6 C6.66 6 7.32 6 8 6 C9.5078125 7.75 9.5078125 7.75 11.125 10 C11.66382813 10.7425 12.20265625 11.485 12.7578125 12.25 C13.16773438 12.8275 13.57765625 13.405 14 14 C13.67 14.66 13.34 15.32 13 16 C12.34 15.34 11.68 14.68 11 14 C10.01 14.495 10.01 14.495 9 15 C7.87256334 13.25156882 6.7481458 11.5011906 5.625 9.75 C4.99851562 8.77546875 4.37203125 7.8009375 3.7265625 6.796875 C2.34865148 4.56478385 1.11687358 2.36912578 0 0 Z " fill="#5D4724" transform="translate(358,164)"/>
<path d="M0 0 C-0.99 0.66 -1.98 1.32 -3 2 C2.28 2.33 7.56 2.66 13 3 C13 3.33 13 3.66 13 4 C4.09 4 -4.82 4 -14 4 C-12.68 3.67 -11.36 3.34 -10 3 C-10 2.34 -10 1.68 -10 1 C-6.59437148 0.22157062 -3.49234244 -0.09978121 0 0 Z " fill="#937138" transform="translate(252,392)"/>
<path d="M0 0 C3.96 0.33 7.92 0.66 12 1 C12 1.33 12 1.66 12 2 C10.35 2 8.7 2 7 2 C7 2.66 7 3.32 7 4 C0.90218999 4.22084624 -4.21642935 4.01167675 -10 2 C-10 1.67 -10 1.34 -10 1 C-6.7 1 -3.4 1 0 1 C0 0.67 0 0.34 0 0 Z " fill="#A88241" transform="translate(235,391)"/>
<path d="M0 0 C0.66 0.99 1.32 1.98 2 3 C-3.75 4 -3.75 4 -6 4 C-6.99 4.66 -7.98 5.32 -9 6 C-11.6875 6.125 -11.6875 6.125 -14 6 C-14 4.68 -14 3.36 -14 2 C-4.71517672 -0.56133056 -4.71517672 -0.56133056 0 0 Z " fill="#B08744" transform="translate(291,386)"/>
<path d="M0 0 C4.57888152 1.45115322 8.97649435 3.20581904 13.375 5.125 C14.01566406 5.40214844 14.65632812 5.67929687 15.31640625 5.96484375 C16.87856925 6.64100385 18.43942315 7.32018707 20 8 C20 8.66 20 9.32 20 10 C15.65506718 9.32006776 11.77434243 7.83659792 7.75 6.125 C7.11320313 5.86847656 6.47640625 5.61195313 5.8203125 5.34765625 C4.17454897 4.65083297 2.58161972 3.83221352 1 3 C0.67 2.01 0.34 1.02 0 0 Z " fill="#5A4623" transform="translate(188,376)"/>
<path d="M0 0 C0.66 0.33 1.32 0.66 2 1 C0.68 4.3 -0.64 7.6 -2 11 C-2.66 10.67 -3.32 10.34 -4 10 C-5.98 14.455 -5.98 14.455 -8 19 C-9.2153691 15.35389269 -8.65387751 14.36434773 -7.25 10.875 C-6.90453125 9.98554688 -6.5590625 9.09609375 -6.203125 8.1796875 C-5 6 -5 6 -2 5 C-0.78130071 2.49552484 -0.78130071 2.49552484 0 0 Z " fill="#BC9148" transform="translate(128,193)"/>
<path d="M0 0 C6.44097165 -0.24204069 12.87168982 -0.2614721 19 2 C19.33 2.66 19.66 3.32 20 4 C15.71 4 11.42 4 7 4 C7 3.67 7 3.34 7 3 C4.69 2.34 2.38 1.68 0 1 C0 0.67 0 0.34 0 0 Z " fill="#CB9C4E" transform="translate(216,389)"/>
<path d="M0 0 C3.05943063 1.18977858 4.68765387 2.42380869 6.2578125 5.3203125 C9.20417746 12.38746762 9.20417746 12.38746762 8 16 C8 15.34 8 14.68 8 14 C7.34 14 6.68 14 6 14 C4.99515796 12.04414675 3.99626195 10.08523763 3 8.125 C2.1646875 6.48917969 2.1646875 6.48917969 1.3125 4.8203125 C0 2 0 2 0 0 Z " fill="#5C4723" transform="translate(369,190)"/>
<path d="M0 0 C2.66355234 -0.39169887 4.39224373 -0.40564529 6.66796875 1.11328125 C8.1510888 2.36389317 9.57954352 3.67864514 11 5 C10.67 5.66 10.34 6.32 10 7 C5.61537866 6.49890042 3.1999003 5.01704885 0 2 C0 1.34 0 0.68 0 0 Z " fill="#AD8543" transform="translate(155,359)"/>
<path d="M0 0 C0.33 0 0.66 0 1 0 C0.67 3.96 0.34 7.92 0 12 C-0.99 11.67 -1.98 11.34 -3 11 C-3.99 11.495 -3.99 11.495 -5 12 C-4.52496041 7.01208429 -3.0298864 3.9767259 0 0 Z " fill="#3E3018" transform="translate(192,183)"/>
<path d="M0 0 C0.66 0.99 1.32 1.98 2 3 C-0.64 6.3 -3.28 9.6 -6 13 C-7.32 12.67 -8.64 12.34 -10 12 C-9.44570313 11.38511719 -8.89140625 10.77023437 -8.3203125 10.13671875 C-7.59585937 9.32847656 -6.87140625 8.52023437 -6.125 7.6875 C-5.40570313 6.88699219 -4.68640625 6.08648437 -3.9453125 5.26171875 C-1.88394498 2.95810917 -1.88394498 2.95810917 0 0 Z " fill="#AE8643" transform="translate(360,333)"/>
<path d="M0 0 C5.94 0.99 5.94 0.99 12 2 C8 5 8 5 5 5 C2.82967524 6.43990623 2.82967524 6.43990623 1 8 C0 6 0 6 0 0 Z " fill="#3F3018" transform="translate(298,285)"/>
<path d="M0 0 C-4.42879679 4.87167647 -8.67118706 5.36711871 -15 6 C-12.74109621 3.48045346 -10.582103 2.12667267 -7.5 0.75 C-6.7265625 0.39421875 -5.953125 0.0384375 -5.15625 -0.328125 C-3 -1 -3 -1 0 0 Z " fill="#332713" transform="translate(319,380)"/>
<path d="M0 0 C0.33 0 0.66 0 1 0 C1 1.65 1 3.3 1 5 C1.99 5 2.98 5 4 5 C4.66 8.63 5.32 12.26 6 16 C5.34 16 4.68 16 4 16 C-0.59225513 5.62642369 -0.59225513 5.62642369 0 0 Z " fill="#45351B" transform="translate(180,215)"/>
<path d="M0 0 C3.59634744 3.49359465 6.83451967 7.11098131 10 11 C9.01 12.485 9.01 12.485 8 14 C3 8.25 3 8.25 3 6 C2.505 5.34 2.01 4.68 1.5 4 C0 2 0 2 0 0 Z " fill="#5B4623" transform="translate(135,336)"/>
<path d="M0 0 C0.66 0.33 1.32 0.66 2 1 C1.38511719 1.59167969 0.77023438 2.18335938 0.13671875 2.79296875 C-0.67152344 3.58316406 -1.47976562 4.37335938 -2.3125 5.1875 C-3.11300781 5.96480469 -3.91351563 6.74210938 -4.73828125 7.54296875 C-6.91076308 9.90305695 -8.46130013 12.19647888 -10 15 C-11 13 -11 13 -10.3515625 10.64453125 C-8.77600399 7.5617188 -7.01361841 5.91147838 -4.375 3.6875 C-3.55773437 2.99011719 -2.74046875 2.29273438 -1.8984375 1.57421875 C-0.95871094 0.79498047 -0.95871094 0.79498047 0 0 Z " fill="#96743A" transform="translate(159,148)"/>
<path d="M0 0 C4.08055151 0.50547372 5.66272295 2.50088882 8.25 5.5625 C8.95640625 6.38878906 9.6628125 7.21507812 10.390625 8.06640625 C10.92171875 8.70449219 11.4528125 9.34257812 12 10 C9 10 9 10 7.5 8.6875 C6.5 7.5625 5.5 6.4375 4.5 5.3125 C2.95590371 3.6707477 2.95590371 3.6707477 0 4 C0 2.68 0 1.36 0 0 Z " fill="#5F4925" transform="translate(344,154)"/>
<path d="M0 0 C2.02225194 3.0333779 2.99347524 5.61344489 4.125 9.0625 C4.47820312 10.12597656 4.83140625 11.18945312 5.1953125 12.28515625 C6 15 6 15 6 17 C5.34 17 4.68 17 4 17 C-0.59225513 5.47835991 -0.59225513 5.47835991 0 0 Z " fill="#B08844" transform="translate(109,285)"/>
<path d="M0 0 C-0.6875 1.875 -0.6875 1.875 -2 4 C-3.64363134 4.72159424 -5.31050386 5.39351421 -7 6 C-7.33 6.66 -7.66 7.32 -8 8 C-8.33 7.34 -8.66 6.68 -9 6 C-7.75 3.4375 -7.75 3.4375 -6 1 C-3 0 -3 0 0 0 Z " fill="#5E4824" transform="translate(214,178)"/>
<path d="M0 0 C1.21386936 3.64160808 0.6674695 4.33165469 -0.9375 7.6875 C-1.31777344 8.49574219 -1.69804688 9.30398437 -2.08984375 10.13671875 C-2.39019531 10.75160156 -2.69054687 11.36648437 -3 12 C-3.99 11.67 -4.98 11.34 -6 11 C-5.25 5.25 -5.25 5.25 -3 3 C-2.67 3.33 -2.34 3.66 -2 4 C-1.34 2.68 -0.68 1.36 0 0 Z " fill="#7D6030" transform="translate(118,198)"/>
<path d="M0 0 C2.62113109 3.93169664 1.88205685 5.60310018 1.125 10.1875 C0.92132813 11.45980469 0.71765625 12.73210937 0.5078125 14.04296875 C0.34023438 15.01878906 0.17265625 15.99460937 0 17 C-2.62113109 13.06830336 -1.88205685 11.39689982 -1.125 6.8125 C-0.92132813 5.54019531 -0.71765625 4.26789063 -0.5078125 2.95703125 C-0.34023438 1.98121094 -0.17265625 1.00539063 0 0 Z " fill="#95733A" transform="translate(384,272)"/>
<path d="M0 0 C2.86697492 1.28519565 4.97607712 2.57129254 7 5 C7 5.66 7 6.32 7 7 C3.64404172 6.40072174 1.62198774 5.15377564 -1 3 C-0.67 2.01 -0.34 1.02 0 0 Z " fill="#9D793C" transform="translate(336,142)"/>
<path d="M0 0 C2.475 0.495 2.475 0.495 5 1 C5.1875 3.875 5.1875 3.875 5 7 C4.01 7.66 3.02 8.32 2 9 C1.34 6.03 0.68 3.06 0 0 Z " fill="#392C16" transform="translate(160,207)"/>
<path d="M0 0 C0.66 0.33 1.32 0.66 2 1 C-0.97 4.96 -0.97 4.96 -4 9 C-5.32 8.67 -6.64 8.34 -8 8 C-5.36 5.36 -2.72 2.72 0 0 Z " fill="#4D3B1E" transform="translate(148,158)"/>
<path d="M0 0 C1.98 0.66 3.96 1.32 6 2 C5.67 3.32 5.34 4.64 5 6 C2.69 5.34 0.38 4.68 -2 4 C-1.34 2.68 -0.68 1.36 0 0 Z " fill="#A07B3E" transform="translate(298,126)"/>
<path d="M0 0 C0.33 0.66 0.66 1.32 1 2 C-3.455 3.485 -3.455 3.485 -8 5 C-8 5.66 -8 6.32 -8 7 C-9.65 6.67 -11.3 6.34 -13 6 C-13 5.34 -13 4.68 -13 4 C-8.71 2.68 -4.42 1.36 0 0 Z " fill="#937139" transform="translate(209,124)"/>
<path d="M0 0 C0.33 1.32 0.66 2.64 1 4 C0.34 4 -0.32 4 -1 4 C-0.67 7.3 -0.34 10.6 0 14 C-2.58926331 11.41073669 -2.37398043 9.97294721 -2.625 6.375 C-2.69976562 5.37210937 -2.77453125 4.36921875 -2.8515625 3.3359375 C-2.90054687 2.56507813 -2.94953125 1.79421875 -3 1 C-2.01 0.67 -1.02 0.34 0 0 Z " fill="#423219" transform="translate(302,252)"/>
<path d="M0 0 C0.99 0.66 1.98 1.32 3 2 C-1.62 2.33 -6.24 2.66 -11 3 C-10 1 -10 1 -7.1875 -0.1875 C-4.08094542 -0.97936685 -2.88504167 -1.19381035 0 0 Z " fill="#9D793D" transform="translate(256,243)"/>
<path d="M0 0 C3.40364888 1.39935885 4.90806188 2.87004732 6.8125 6 C7.25207031 6.70125 7.69164062 7.4025 8.14453125 8.125 C8.42683594 8.74375 8.70914062 9.3625 9 10 C8.67 10.66 8.34 11.32 8 12 C6.66081194 10.37982158 5.3288031 8.75370657 4 7.125 C3.2575 6.22007812 2.515 5.31515625 1.75 4.3828125 C0 2 0 2 0 0 Z " fill="#C2964B" transform="translate(358,167)"/>
<path d="M0 0 C1.32 0 2.64 0 4 0 C4 0.66 4 1.32 4 2 C2.23358317 2.6987693 0.46167336 3.38366583 -1.3125 4.0625 C-2.79169922 4.63677734 -2.79169922 4.63677734 -4.30078125 5.22265625 C-7 6 -7 6 -10 5 C-3.375 2 -3.375 2 0 2 C0 1.34 0 0.68 0 0 Z " fill="#CB9C4E" transform="translate(210,124)"/>
<path d="M0 0 C0.99 0.495 0.99 0.495 2 1 C2.88671875 3.8359375 2.88671875 3.8359375 3.6875 7.375 C3.95949219 8.53773438 4.23148437 9.70046875 4.51171875 10.8984375 C5 14 5 14 4 17 C1.36536213 11.15439723 -0.56131481 6.45512034 0 0 Z " fill="#906F38" transform="translate(289,248)"/>
<path d="M0 0 C2 3 2 3 2 7 C0.5 8.75 0.5 8.75 -1 10 C-1 9.01 -1 8.02 -1 7 C-1.66 7 -2.32 7 -3 7 C-1.125 1.125 -1.125 1.125 0 0 Z " fill="#634D26" transform="translate(126,177)"/>
<path d="M0 0 C1.15518918 0.90484792 2.29885406 1.8244206 3.4375 2.75 C4.07558594 3.26046875 4.71367187 3.7709375 5.37109375 4.296875 C7.18810554 6.19667629 7.60423197 7.43586908 8 10 C6.87105124 9.06725891 5.74699124 8.12859878 4.625 7.1875 C3.99851562 6.66542969 3.37203125 6.14335937 2.7265625 5.60546875 C1 4 1 4 -1 1 C-0.67 0.67 -0.34 0.34 0 0 Z " fill="#B88E47" transform="translate(343,148)"/>
<path d="M0 0 C0.33 0.66 0.66 1.32 1 2 C0.00390625 4.3828125 0.00390625 4.3828125 -1.4375 7.125 C-1.91058594 8.03507812 -2.38367188 8.94515625 -2.87109375 9.8828125 C-3.24363281 10.58148438 -3.61617188 11.28015625 -4 12 C-4.33 12 -4.66 12 -5 12 C-5.39213671 7.55578397 -4.25321274 4.81312925 -2 1 C-1.34 0.67 -0.68 0.34 0 0 Z " fill="#C4974C" transform="translate(375,309)"/>
<path d="M0 0 C2.64 0.99 5.28 1.98 8 3 C7.67 3.66 7.34 4.32 7 5 C3.26512223 4.5020163 1.18762365 4.12508244 -2 2 C-1.34 2 -0.68 2 0 2 C0 1.34 0 0.68 0 0 Z " fill="#836533" transform="translate(304,128)"/>
<path d="M0 0 C0.99 0 1.98 0 3 0 C4.32 2.97 5.64 5.94 7 9 C6.01 9.495 6.01 9.495 5 10 C3.35 6.7 1.7 3.4 0 0 Z " fill="#191309" transform="translate(366,183)"/>
<path d="M0 0 C5.95703125 -0.29296875 5.95703125 -0.29296875 8 0 C8.99 0.99 9.98 1.98 11 3 C6.545 3.495 6.545 3.495 2 4 C2.66 3.34 3.32 2.68 4 2 C2.68 1.34 1.36 0.68 0 0 Z " fill="#6D542A" transform="translate(263,392)"/>
<path d="M0 0 C2.475 0.99 2.475 0.99 5 2 C4.67 3.32 4.34 4.64 4 6 C2.02 4.68 0.04 3.36 -2 2 C-1.34 1.34 -0.68 0.68 0 0 Z " fill="#BB9048" transform="translate(165,365)"/>
<path d="M0 0 C0.99 0.33 1.98 0.66 3 1 C3.33 4.3 3.66 7.6 4 11 C0.88776687 6.85035583 0.47996422 4.99162787 0 0 Z " fill="#191309" transform="translate(284,235)"/>
<path d="M0 0 C3.91402949 1.26941497 5.79072873 2.51167694 8 6 C4.38462395 6 2.88834003 5.10770759 0 3 C0 2.01 0 1.02 0 0 Z " fill="#8C6C36" transform="translate(324,133)"/>
<path d="M0 0 C1.98 0.495 1.98 0.495 4 1 C3.67 2.32 3.34 3.64 3 5 C1.68 4.67 0.36 4.34 -1 4 C-0.67 2.68 -0.34 1.36 0 0 Z " fill="#B68D46" transform="translate(207,394)"/>
<path d="M0 0 C0.80050781 0.12761719 1.60101563 0.25523437 2.42578125 0.38671875 C3.23402344 0.50660156 4.04226563 0.62648438 4.875 0.75 C5.48988281 0.85699219 6.10476563 0.96398437 6.73828125 1.07421875 C6.73828125 1.40421875 6.73828125 1.73421875 6.73828125 2.07421875 C5.08828125 2.07421875 3.43828125 2.07421875 1.73828125 2.07421875 C1.73828125 2.73421875 1.73828125 3.39421875 1.73828125 4.07421875 C-0.57171875 3.74421875 -2.88171875 3.41421875 -5.26171875 3.07421875 C-3.53640014 0.90221572 -2.83921072 0.09316926 0 0 Z " fill="#3E3018" transform="translate(275.26171875,390.92578125)"/>
<path d="M0 0 C3.55780196 0.60990891 6.6828589 1.5783681 10 3 C10 3.66 10 4.32 10 5 C6.44219804 4.39009109 3.3171411 3.4216319 0 2 C0 1.34 0 0.68 0 0 Z " fill="#6E542A" transform="translate(198,381)"/>
<path d="M0 0 C1.98 0.495 1.98 0.495 4 1 C3.67 2.32 3.34 3.64 3 5 C1.68 4.67 0.36 4.34 -1 4 C-0.67 2.68 -0.34 1.36 0 0 Z " fill="#BC9048" transform="translate(219,379)"/>
<path d="M0 0 C1.98 0.495 1.98 0.495 4 1 C3.67 2.32 3.34 3.64 3 5 C1.68 4.67 0.36 4.34 -1 4 C-0.67 2.68 -0.34 1.36 0 0 Z " fill="#BD9249" transform="translate(365,352)"/>
<path d="M0 0 C1.98 0.495 1.98 0.495 4 1 C3.67 2.32 3.34 3.64 3 5 C1.68 4.67 0.36 4.34 -1 4 C-0.67 2.68 -0.34 1.36 0 0 Z " fill="#BA8F48" transform="translate(371,345)"/>
<path d="M0 0 C1.98 0.495 1.98 0.495 4 1 C3.67 2.32 3.34 3.64 3 5 C1.68 4.67 0.36 4.34 -1 4 C-0.67 2.68 -0.34 1.36 0 0 Z " fill="#B98F47" transform="translate(126,341)"/>
<path d="M0 0 C1.98 0.495 1.98 0.495 4 1 C3.67 2.32 3.34 3.64 3 5 C1.68 4.67 0.36 4.34 -1 4 C-0.67 2.68 -0.34 1.36 0 0 Z " fill="#BA9048" transform="translate(359,318)"/>
<path d="M0 0 C2.33061852 3.49592778 2.70295038 5.84130536 3 10 C2.34 10.99 1.68 11.98 1 13 C-0.10228696 8.59085217 -0.07654536 4.51617599 0 0 Z " fill="#9F7A3D" transform="translate(107,275)"/>
<path d="M0 0 C1.98 0.495 1.98 0.495 4 1 C3.67 2.32 3.34 3.64 3 5 C1.68 4.67 0.36 4.34 -1 4 C-0.67 2.68 -0.34 1.36 0 0 Z " fill="#B88E47" transform="translate(401,251)"/>
<path d="M0 0 C0.99 0.33 1.98 0.66 3 1 C2.34 3.97 1.68 6.94 1 10 C0.01 9.01 -0.98 8.02 -2 7 C-1 4 -1 4 1 2 C0.34 1.67 -0.32 1.34 -1 1 C-0.67 0.67 -0.34 0.34 0 0 Z " fill="#4A391C" transform="translate(327,251)"/>
<path d="M0 0 C3.32382587 4.33542505 4.12018668 6.47141274 4 12 C3.67 12 3.34 12 3 12 C2.7525 10.9275 2.505 9.855 2.25 8.75 C1.00116854 5.00350563 -0.02488658 3.47926118 -3 1 C-2.01 0.67 -1.02 0.34 0 0 Z " fill="#947239" transform="translate(182,236)"/>
<path d="M0 0 C1.98 0.495 1.98 0.495 4 1 C3.67 2.32 3.34 3.64 3 5 C1.68 4.67 0.36 4.34 -1 4 C-0.67 2.68 -0.34 1.36 0 0 Z " fill="#B88E47" transform="translate(294,133)"/>
<path d="M0 0 C0 0.66 0 1.32 0 2 C-2.31 2.33 -4.62 2.66 -7 3 C-7 2.34 -7 1.68 -7 1 C-7.66 0.67 -8.32 0.34 -9 0 C-3.375 -1.125 -3.375 -1.125 0 0 Z " fill="#AF8743" transform="translate(221,123)"/>
<path d="M0 0 C0.66 0 1.32 0 2 0 C2 0.99 2 1.98 2 3 C2.66 3.33 3.32 3.66 4 4 C2.02 4.66 0.04 5.32 -2 6 C-2.33 5.34 -2.66 4.68 -3 4 C-1.625 2 -1.625 2 0 0 Z " fill="#503D1F" transform="translate(340,362)"/>
<path d="M0 0 C1.98 0.495 1.98 0.495 4 1 C3.67 2.32 3.34 3.64 3 5 C1.68 4.67 0.36 4.34 -1 4 C-0.67 2.68 -0.34 1.36 0 0 Z " fill="#BB9048" transform="translate(366,360)"/>
<path d="M0 0 C0.99 0.33 1.98 0.66 3 1 C2.67 2.32 2.34 3.64 2 5 C0.68 4.67 -0.64 4.34 -2 4 C-2 3.01 -2 2.02 -2 1 C-1.34 0.67 -0.68 0.34 0 0 Z " fill="#BD9249" transform="translate(149,331)"/>
<path d="M0 0 C0.66 1.32 1.32 2.64 2 4 C0.71937515 5.7074998 -0.61767557 7.37373596 -2 9 C-2.66 9 -3.32 9 -4 9 C-2.80100302 5.9168649 -1.52299523 2.93720508 0 0 Z " fill="#B58B46" transform="translate(369,318)"/>
<path d="M0 0 C1.98 0.495 1.98 0.495 4 1 C3.67 2.32 3.34 3.64 3 5 C1.68 4.67 0.36 4.34 -1 4 C-0.67 2.68 -0.34 1.36 0 0 Z " fill="#BA8F48" transform="translate(121,262)"/>
<path d="M0 0 C1.32 0.66 2.64 1.32 4 2 C3.67 2.99 3.34 3.98 3 5 C1.68 5 0.36 5 -1 5 C-0.67 3.35 -0.34 1.7 0 0 Z " fill="#BB9048" transform="translate(375,220)"/>
<path d="M0 0 C0.66 0.33 1.32 0.66 2 1 C0.68 4.3 -0.64 7.6 -2 11 C-2.33 11 -2.66 11 -3 11 C-3.32613618 6.32538149 -2.70582788 3.83325617 0 0 Z " fill="#7F6231" transform="translate(128,193)"/>
<path d="M0 0 C1.32 0.66 2.64 1.32 4 2 C3.67 2.99 3.34 3.98 3 5 C1.68 5 0.36 5 -1 5 C-0.67 3.35 -0.34 1.7 0 0 Z " fill="#B98E47" transform="translate(151,172)"/>
<path d="M0 0 C3.37462715 0.54723683 5.08235 1.0549 8 3 C5.36 3.33 2.72 3.66 0 4 C0 2.68 0 1.36 0 0 Z " fill="#846633" transform="translate(277,388)"/>
<path d="M0 0 C2.88437779 1.29299694 4.87219421 2.65941363 7 5 C3.25 6.125 3.25 6.125 1 5 C0.375 2.4375 0.375 2.4375 0 0 Z " fill="#534020" transform="translate(173,366)"/>
<path d="M0 0 C0.598125 0.350625 1.19625 0.70125 1.8125 1.0625 C1.4825 1.7225 1.1525 2.3825 0.8125 3.0625 C-1.4975 2.7325 -3.8075 2.4025 -6.1875 2.0625 C-4.66896708 -0.97456585 -3.05066334 -1.30742714 0 0 Z " fill="#B28945" transform="translate(296.1875,125.9375)"/>
<path d="M0 0 C1.65 0 3.3 0 5 0 C4.67 1.32 4.34 2.64 4 4 C2.68 3.67 1.36 3.34 0 3 C0 2.01 0 1.02 0 0 Z " fill="#C79A4D" transform="translate(314,388)"/>
<path d="M0 0 C0.99 0.33 1.98 0.66 3 1 C3 1.66 3 2.32 3 3 C3.66 3.33 4.32 3.66 5 4 C3.35 4.33 1.7 4.66 0 5 C-0.5625 3.0625 -0.5625 3.0625 -1 1 C-0.67 0.67 -0.34 0.34 0 0 Z " fill="#B28945" transform="translate(210,385)"/>
<path d="M0 0 C1.32 0 2.64 0 4 0 C4 1.32 4 2.64 4 4 C2.35 3.67 0.7 3.34 -1 3 C-0.67 2.01 -0.34 1.02 0 0 Z " fill="#C3964B" transform="translate(323,385)"/>
<path d="M0 0 C-0.33 0.99 -0.66 1.98 -1 3 C-4.5625 4.1875 -4.5625 4.1875 -8 5 C-7.67 4.01 -7.34 3.02 -7 2 C-4.56723614 0.81480735 -2.71982714 0 0 0 Z " fill="#C2964B" transform="translate(311,377)"/>
<path d="M0 0 C0.33 0.99 0.66 1.98 1 3 C-0.65 3.66 -2.3 4.32 -4 5 C-2.25 1.125 -2.25 1.125 0 0 Z " fill="#050402" transform="translate(344,361)"/>
<path d="M0 0 C1.98 0.495 1.98 0.495 4 1 C4 1.99 4 2.98 4 4 C2.35 4 0.7 4 -1 4 C-0.67 2.68 -0.34 1.36 0 0 Z " fill="#C5984C" transform="translate(142,324)"/>
<path d="M0 0 C1.65 0.99 3.3 1.98 5 3 C4.67 3.66 4.34 4.32 4 5 C1.5625 4.625 1.5625 4.625 -1 4 C-1.33 3.34 -1.66 2.68 -2 2 C-1.34 2 -0.68 2 0 2 C0 1.34 0 0.68 0 0 Z " fill="#312513" transform="translate(176,231)"/>
<path d="M0 0 C2.475 0.495 2.475 0.495 5 1 C4.67 1.99 4.34 2.98 4 4 C2.68 4 1.36 4 0 4 C0 2.68 0 1.36 0 0 Z " fill="#C6994C" transform="translate(99,231)"/>
<path d="M0 0 C2.475 0.495 2.475 0.495 5 1 C4.67 1.99 4.34 2.98 4 4 C2.68 4 1.36 4 0 4 C0 2.68 0 1.36 0 0 Z " fill="#C7994D" transform="translate(125,223)"/>
<path d="M0 0 C1.32 0 2.64 0 4 0 C4 1.32 4 2.64 4 4 C2.35 3.67 0.7 3.34 -1 3 C-0.67 2.01 -0.34 1.02 0 0 Z " fill="#C4974C" transform="translate(371,212)"/>
<path d="M0 0 C1.98 0.495 1.98 0.495 4 1 C4 1.99 4 2.98 4 4 C2.35 4 0.7 4 -1 4 C-0.67 2.68 -0.34 1.36 0 0 Z " fill="#C5984C" transform="translate(372,168)"/>
<path d="M0 0 C0.99 0.33 1.98 0.66 3 1 C3 2.32 3 3.64 3 5 C1.68 5 0.36 5 -1 5 C-0.67 3.35 -0.34 1.7 0 0 Z " fill="#C4974C" transform="translate(153,165)"/>
<path d="M0 0 C3.93673644 1.31224548 6.22719294 2.91910327 9 6 C5.08788267 4.84414715 2.1254959 3.64465038 -1 1 C-0.67 0.67 -0.34 0.34 0 0 Z " fill="#0C0904" transform="translate(318,132)"/>
<path d="M0 0 C1.65 0 3.3 0 5 0 C4.67 1.32 4.34 2.64 4 4 C2.68 3.67 1.36 3.34 0 3 C0 2.01 0 1.02 0 0 Z " fill="#C5984C" transform="translate(154,121)"/>
<path d="M0 0 C1.98 0.495 1.98 0.495 4 1 C4 1.99 4 2.98 4 4 C2.35 4 0.7 4 -1 4 C-0.67 2.68 -0.34 1.36 0 0 Z " fill="#C79A4D" transform="translate(178,117)"/>
<path d="M0 0 C1.98 0.495 1.98 0.495 4 1 C4 1.99 4 2.98 4 4 C2.35 4 0.7 4 -1 4 C-0.67 2.68 -0.34 1.36 0 0 Z " fill="#C7994D" transform="translate(234,103)"/>
<path d="M0 0 C-2.05233685 2.2477975 -3.00667261 3.0022242 -6 4 C-6.33 3.01 -6.66 2.02 -7 1 C-3.375 -1.125 -3.375 -1.125 0 0 Z " fill="#B08844" transform="translate(317,375)"/>
<path d="M0 0 C0.99 0 1.98 0 3 0 C2.67 1.65 2.34 3.3 2 5 C1.01 4.67 0.02 4.34 -1 4 C-0.67 2.68 -0.34 1.36 0 0 Z " fill="#C89A4D" transform="translate(359,359)"/>
<path d="M0 0 C1.98 0.495 1.98 0.495 4 1 C3.67 1.99 3.34 2.98 3 4 C1.68 4 0.36 4 -1 4 C-0.67 2.68 -0.34 1.36 0 0 Z " fill="#CB9D4F" transform="translate(403,263)"/>
</svg>
